<?xml version="1.0" standalone="no"?>
<!DOCTYPE svg PUBLIC "-//W3C//DTD SVG 20010904//EN"
 "http://www.w3.org/TR/2001/REC-SVG-20010904/DTD/svg10.dtd">
<svg version="1.0" xmlns="http://www.w3.org/2000/svg"
 width="3008.000000pt" height="2000.000000pt" viewBox="0 0 3008.000000 2000.000000"
 preserveAspectRatio="xMidYMid meet">

<g transform="translate(0.000000,2000.000000) scale(0.100000,-0.100000)"
fill="#000000" stroke="none">
<path d="M0 10000 l0 -10000 15040 0 15040 0 0 10000 0 10000 -15040 0 -15040
0 0 -10000z m11560 6470 c103 -19 218 -88 286 -172 6 -7 41 -40 79 -73 64 -56
80 -72 136 -135 12 -14 35 -54 52 -90 55 -114 39 -267 -40 -386 -89 -137 -227
-218 -483 -286 -151 -40 -380 -50 -541 -24 -305 50 -492 153 -617 339 -72 107
-92 257 -51 373 32 90 38 121 26 133 -8 8 -6 11 6 11 9 0 17 4 17 9 0 5 11 19
25 32 13 13 25 30 25 38 0 8 3 11 7 8 3 -4 18 7 33 23 30 33 205 124 220 115
6 -4 10 -2 10 3 0 8 126 43 230 63 180 35 449 44 580 19z m-1828 -192 c95 -12
120 -16 156 -27 17 -5 32 -7 32 -5 0 7 82 -38 98 -53 7 -7 17 -13 22 -13 15 0
24 -91 10 -100 -6 -4 -11 -11 -10 -16 4 -13 -60 -45 -79 -40 -9 3 -68 10 -131
16 -119 12 -218 13 -405 4 -147 -8 -145 -8 -145 -14 0 -3 -21 -6 -48 -8 -54
-3 -173 -25 -282 -54 -92 -24 -235 -35 -244 -19 -4 6 -3 11 2 11 4 0 18 17 29
38 23 40 66 82 85 82 6 0 9 3 5 6 -3 4 0 12 7 20 17 16 179 94 209 99 12 3 31
9 42 14 57 25 140 42 330 65 52 6 251 3 317 -6z m-1617 -202 c86 -19 175 -53
175 -67 0 -5 4 -9 10 -9 9 0 19 -7 75 -55 13 -11 49 -38 80 -60 89 -64 185
-164 211 -220 75 -164 31 -348 -117 -494 -229 -224 -669 -322 -1063 -235 -261
57 -433 173 -508 341 -31 69 -30 67 -32 200 0 66 -3 120 -6 118 -3 -2 -12 0
-20 5 -30 19 -17 140 20 182 69 80 152 149 195 161 11 3 65 21 120 41 134 48
292 87 409 101 21 2 41 7 44 10 13 13 330 -2 407 -19z m-1258 -562 c-3 -4 -2
-14 3 -23 4 -9 9 -43 11 -76 2 -61 15 -105 31 -105 4 0 8 -11 8 -23 0 -13 6
-37 14 -53 8 -16 16 -51 19 -79 3 -27 12 -86 20 -130 21 -112 29 -205 17 -205
-6 0 -10 -8 -11 -17 0 -14 -2 -15 -6 -3 -9 23 -23 29 -58 23 -19 -3 -35 0 -39
6 -14 23 -22 10 -20 -36 0 -27 -3 -54 -9 -60 -6 -9 -6 -13 2 -13 7 0 11 -20
11 -50 0 -28 5 -50 10 -50 6 0 10 -17 10 -37 0 -21 1 -71 2 -111 2 -39 0 -72
-3 -72 -3 0 -4 -13 -1 -30 2 -16 7 -30 11 -30 3 0 6 -33 6 -73 -1 -39 3 -78 8
-84 13 -18 -5 -16 -29 2 -11 8 -14 15 -6 15 17 0 15 35 -4 51 -12 10 -14 23
-9 57 4 30 3 42 -4 37 -7 -4 -11 8 -11 34 0 21 -5 41 -10 43 -6 2 -12 41 -14
88 -2 47 -7 96 -10 110 -3 14 -8 48 -10 77 -3 28 -8 57 -10 65 -6 16 -19 140
-20 186 -1 17 -3 32 -6 32 -3 0 -5 34 -5 76 0 42 -2 77 -5 79 -9 5 -1 140 14
220 2 11 0 30 -5 42 -7 18 -5 21 8 16 12 -5 15 -2 11 8 -7 17 42 79 61 79 7 0
9 5 6 10 -3 6 2 10 11 10 10 0 14 -3 11 -6z m3308 -368 c178 -38 378 -143 464
-244 21 -24 54 -72 72 -106 32 -59 34 -65 34 -171 0 -100 -3 -115 -27 -165
-147 -296 -604 -464 -1073 -395 -177 27 -374 103 -475 184 -56 45 -119 112
-120 128 0 6 -4 13 -8 15 -19 8 -55 118 -60 181 -13 178 85 320 313 454 46 27
198 91 235 98 8 2 47 10 85 19 109 24 110 24 300 21 122 -2 206 -8 260 -19z
m2060 -861 c82 -14 196 -55 337 -119 53 -24 78 -31 82 -23 2 7 5 4 5 -5 1 -10
5 -18 10 -18 5 0 11 -9 14 -21 4 -14 10 -18 19 -13 7 4 10 3 5 -1 -7 -9 50
-75 65 -75 4 0 8 8 9 18 0 10 3 12 6 4 3 -8 11 -4 25 13 23 30 66 33 109 8 52
-31 123 -199 222 -528 8 -27 25 -97 37 -155 11 -58 26 -126 31 -151 6 -25 7
-57 4 -71 -3 -13 1 -56 10 -94 30 -126 16 -732 -21 -909 -3 -16 -7 -36 -8 -43
-3 -17 -56 -77 -56 -63 0 6 -6 8 -14 5 -18 -7 -70 56 -57 69 6 6 7 17 2 26 -5
9 -7 38 -7 64 1 27 -1 50 -5 53 -4 2 -5 22 -3 45 2 22 -1 49 -6 59 -7 13 -7
21 0 25 6 4 7 11 4 17 -4 6 -8 38 -10 72 -10 188 -14 257 -19 316 -3 36 -7
128 -10 205 -2 98 -10 164 -24 219 -12 43 -22 93 -24 111 -2 17 -7 37 -11 43
-4 7 -11 36 -17 65 -11 62 -13 69 -21 82 -3 6 -9 26 -13 45 -4 19 -14 47 -21
63 -12 21 -12 27 -2 27 9 0 9 3 2 8 -6 4 -16 16 -23 27 l-12 20 2 -20 c6 -53
-58 -203 -109 -260 -93 -102 -299 -206 -492 -248 -76 -17 -130 -21 -270 -21
-199 1 -308 16 -450 63 -125 42 -187 74 -265 136 -121 97 -188 208 -201 334
-6 54 10 165 26 186 4 6 11 21 15 35 21 71 164 210 275 265 133 67 301 111
475 123 102 7 308 0 380 -13z m-3575 -430 c242 -40 454 -154 552 -297 54 -79
66 -106 77 -178 23 -142 -26 -270 -153 -395 -68 -67 -98 -89 -186 -132 -130
-64 -209 -89 -375 -118 -89 -16 -247 -16 -360 -1 -285 39 -499 144 -609 299
-127 179 -109 385 48 555 206 222 616 331 1006 267z m-1256 -615 c24 -76 109
-408 120 -467 3 -18 1 -33 -4 -33 -5 0 -10 -10 -12 -22 -7 -49 -63 -24 -75 33
-3 16 -9 29 -14 29 -15 0 -22 -48 -13 -88 4 -20 8 -43 7 -49 0 -7 3 -13 9 -13
5 0 7 -4 3 -9 -3 -5 -1 -29 4 -53 5 -24 12 -61 15 -82 4 -21 8 -48 11 -60 2
-12 7 -50 10 -86 4 -36 8 -76 10 -90 2 -14 7 -47 11 -75 12 -85 21 -81 27 13
4 73 10 98 31 131 15 23 30 41 34 41 8 0 24 -127 43 -335 6 -60 13 -202 16
-315 5 -227 -3 -282 -44 -288 -28 -4 -37 14 -53 111 -13 79 -25 92 -50 58 -10
-15 -18 -17 -32 -10 -10 5 -17 13 -16 17 1 4 -4 21 -11 37 -7 17 -15 39 -17
50 -17 85 -23 126 -27 161 -2 23 -8 47 -13 55 -5 8 -9 32 -10 54 -2 22 -5 63
-9 90 -3 28 -7 56 -7 63 -1 6 -6 12 -12 12 -6 0 -4 5 4 10 11 7 11 10 2 10 -7
0 -11 3 -8 8 2 4 0 28 -4 53 -13 66 -23 158 -24 206 -1 22 -4 39 -8 37 -4 -2
-5 14 -3 36 2 22 0 42 -4 44 -4 3 -7 30 -6 60 0 32 -4 56 -10 56 -7 0 -7 3 0
8 11 8 15 62 5 62 -4 0 -6 15 -5 33 1 17 -3 35 -9 40 -8 5 -6 10 4 17 10 7 11
10 2 10 -9 0 -12 20 -11 73 1 39 -1 99 -5 133 -8 68 7 125 26 106 7 -7 18 -12
26 -12 14 0 12 56 -4 161 -4 24 0 47 11 68 l16 33 25 -29 c13 -15 35 -62 48
-103z m9811 -540 c183 -27 318 -63 375 -100 14 -8 39 -22 55 -29 17 -7 37 -17
45 -22 8 -5 29 -16 45 -25 85 -46 305 -227 305 -251 0 -4 11 -18 36 -46 38
-43 58 -114 37 -135 -18 -19 -41 -9 -128 54 -42 30 -80 54 -85 54 -4 0 -10 3
-12 8 -1 4 -50 31 -107 60 -73 37 -100 47 -90 33 8 -11 31 -44 52 -73 52 -75
87 -177 87 -259 1 -390 -522 -642 -1095 -528 -147 29 -290 85 -416 164 -79 50
-192 173 -231 252 -91 183 -46 372 126 529 80 74 166 118 341 175 82 27 138
51 152 66 12 13 27 23 33 23 6 0 18 7 27 16 9 8 22 13 29 10 8 -3 14 -2 14 3
0 5 17 12 38 16 39 8 246 22 272 18 8 -1 51 -7 95 -13z m1324 -949 c10 0 7 4
-8 10 -13 5 -22 12 -19 14 3 3 17 1 32 -5 15 -5 32 -7 38 -4 7 4 8 2 4 -4 -5
-8 2 -12 21 -12 41 -1 103 -10 138 -20 17 -5 48 -11 70 -15 49 -7 148 -35 155
-43 7 -10 41 -31 76 -47 38 -17 48 -39 29 -59 -11 -10 -11 -16 -3 -18 20 -7
-2 -28 -30 -28 -50 0 -212 -44 -212 -58 0 -9 -10 -12 -27 -10 -23 2 -27 7 -25
26 2 16 -4 25 -25 34 -15 6 -37 10 -48 8 -11 -1 -29 -4 -40 -5 -11 -1 -22 -3
-24 -4 -2 0 7 -10 20 -21 l24 -19 -40 -2 c-22 -1 -44 0 -50 1 -5 1 -61 -3
-125 -9 -133 -13 -344 -25 -412 -24 -48 0 -118 26 -118 44 0 6 -5 7 -11 3 -6
-3 -3 8 5 25 9 17 21 31 26 31 6 0 10 6 10 14 0 8 15 23 34 33 19 10 58 35 88
55 29 21 69 39 88 41 24 3 38 11 45 25 5 12 18 22 28 22 10 0 28 7 40 15 13 8
51 16 85 17 34 2 62 6 62 10 0 4 19 1 41 -7 23 -8 49 -15 58 -14z m2011 -321
c151 -32 332 -107 456 -189 86 -57 195 -175 233 -253 18 -35 37 -95 43 -133 8
-55 17 -77 40 -101 l29 -31 -25 -7 c-14 -3 -26 -11 -26 -17 0 -6 -4 -7 -10 -4
-14 9 -12 -39 2 -53 7 -7 22 -12 34 -12 13 0 25 -4 29 -9 3 -6 13 -10 23 -10
9 0 35 -3 57 -5 l40 -4 -40 20 c-33 16 -35 19 -12 15 15 -2 27 -1 27 3 0 4 11
11 24 14 17 4 24 13 24 31 0 14 -5 25 -10 25 -5 0 -6 5 -3 10 3 6 2 10 -3 10
-11 0 -35 60 -27 68 3 3 5 1 5 -5 0 -11 59 -40 73 -35 5 1 6 -2 2 -8 -3 -5 0
-10 8 -10 20 0 46 -42 49 -77 2 -39 -7 -63 -63 -160 -27 -46 -49 -87 -49 -89
0 -3 -11 -20 -25 -38 -14 -18 -25 -41 -25 -50 0 -9 -4 -15 -9 -11 -6 3 -18
-12 -27 -32 -10 -21 -21 -40 -25 -43 -11 -8 -89 -140 -89 -150 0 -6 -3 -10 -7
-10 -11 0 -43 -58 -43 -76 0 -9 -4 -13 -9 -10 -10 6 -8 32 3 61 25 61 85 187
113 237 36 62 39 74 21 92 -19 18 -139 48 -178 43 -19 -2 -60 -19 -90 -39 -94
-61 -180 -99 -279 -125 -154 -41 -442 -37 -606 9 -403 112 -654 321 -696 580
-6 34 -15 68 -20 74 -7 8 -7 26 1 52 5 22 7 47 4 57 -5 11 0 18 12 21 11 3 37
35 59 71 60 97 141 168 260 224 91 42 224 82 315 93 64 8 354 -2 410 -14z
m-9789 -134 c105 -26 189 -62 254 -106 54 -37 156 -140 150 -150 -3 -5 -1 -11
5 -15 34 -21 70 -171 71 -296 1 -113 -21 -186 -81 -276 -17 -24 -30 -46 -30
-49 0 -9 -152 -154 -161 -154 -4 0 -14 -6 -21 -12 -32 -30 -160 -98 -183 -98
-8 0 -15 -4 -15 -10 0 -5 -19 -15 -42 -21 -24 -7 -48 -16 -53 -20 -10 -8 -132
-42 -190 -54 -16 -3 -43 -9 -60 -12 -39 -9 -225 -9 -290 -1 -69 8 -134 24
-170 41 -16 8 -49 23 -72 33 -24 10 -43 21 -43 26 0 4 -6 8 -14 8 -19 0 -143
126 -158 161 -7 16 -16 29 -19 29 -4 0 -10 16 -13 35 -4 19 -11 35 -15 35 -13
0 -23 56 -27 150 -6 171 52 326 175 465 112 128 330 253 511 295 52 12 100 24
105 26 6 2 73 2 150 -1 103 -3 165 -11 236 -29z m11010 -86 c27 -15 25 -42 -3
-38 -14 2 -22 11 -23 26 -2 25 -1 26 26 12z m-3860 -67 c12 -16 12 -17 -2 -6
-9 7 -19 10 -22 6 -4 -3 -7 -1 -7 5 0 17 16 15 31 -5z m3579 -62 c-1 -13 -3
-13 -15 3 -19 26 -19 42 0 26 8 -7 15 -20 15 -29z m-3764 -29 c14 -9 34 -68
34 -98 0 -32 -18 -40 -28 -13 l-9 23 -6 -24 -6 -25 -21 22 c-17 18 -18 27 -9
50 7 19 7 29 0 31 -7 2 -6 10 2 23 12 20 25 23 43 11z m1098 -55 c8 -13 7 -20
-4 -27 -24 -16 -30 -12 -30 21 0 33 16 36 34 6z m2536 -57 c0 -5 -2 -10 -4
-10 -3 0 -8 5 -11 10 -3 6 -1 10 4 10 6 0 11 -4 11 -10z m-39 -20 c6 0 8 -4 5
-9 -4 -5 -3 -11 1 -13 12 -5 55 -69 51 -74 -2 -2 -15 -5 -29 -7 -29 -5 -45 15
-58 72 -8 36 -7 42 6 37 8 -3 19 -6 24 -6z m-3361 -85 c17 -9 30 -20 30 -25 0
-6 7 -10 16 -10 8 0 13 -4 9 -9 -3 -5 0 -13 7 -18 8 -5 -8 -10 -42 -13 -68 -6
-90 -2 -83 15 2 8 -4 19 -15 26 -20 12 -20 13 2 30 26 23 39 23 76 4z m3608
-27 c1 -5 0 -8 -3 -8 -7 1 -75 41 -75 45 0 7 76 -30 78 -37z m-3883 22 c3 -5
1 -10 -4 -10 -6 0 -11 5 -11 10 0 6 2 10 4 10 3 0 8 -4 11 -10z m154 -4 c15
-18 4 -64 -19 -76 -9 -5 -19 -8 -21 -6 -2 2 -20 6 -39 9 -57 8 -90 18 -90 29
0 5 -4 6 -10 3 -5 -3 -10 -4 -10 -1 0 2 -3 11 -6 20 -5 13 -1 14 28 6 45 -14
58 -12 58 4 0 25 91 34 109 12z m-217 -15 c8 11 9 10 5 -3 -3 -9 -1 -19 6 -21
9 -3 9 -7 0 -17 -13 -14 -103 -5 -103 11 0 5 5 9 11 9 5 0 8 4 4 9 -8 14 27
19 49 8 13 -6 21 -5 28 4z m251 -35 c3 -8 -1 -17 -9 -20 -9 -4 -14 1 -14 14 0
23 15 27 23 6z m3737 -16 c0 -5 -7 -7 -15 -4 -8 4 -12 10 -9 15 6 11 24 2 24
-11z m207 -72 c-3 -7 -5 -2 -5 12 0 14 2 19 5 13 2 -7 2 -19 0 -25z m-180 -20
c-3 -8 -6 -5 -6 6 -1 11 2 17 5 13 3 -3 4 -12 1 -19z m-3902 -8 c10 -11 25
-20 33 -20 11 0 8 6 -8 20 -24 21 -15 25 27 14 19 -5 21 -9 12 -26 -9 -17 -5
-22 41 -41 53 -22 64 -47 22 -54 -14 -2 -21 1 -17 7 3 6 -1 7 -9 4 -10 -4 -16
-1 -16 7 0 12 -2 12 -9 0 -7 -11 -10 -9 -15 7 -4 12 -15 23 -24 26 -19 6 -78
76 -64 76 5 0 17 -9 27 -20z m1831 -5 c3 -14 10 -25 15 -25 5 0 9 -6 9 -12 -1
-13 -50 41 -50 55 0 18 20 4 26 -18z m2254 10 c10 6 11 -1 6 -31 -10 -54 -14
-81 -21 -143 -3 -30 -9 -59 -12 -64 -3 -5 -7 -43 -8 -84 -2 -42 -8 -80 -14
-86 -6 -6 -11 -21 -11 -34 0 -13 -5 -22 -12 -20 -17 3 -44 -187 -62 -433 -8
-113 -22 -232 -31 -265 -25 -92 -45 -215 -44 -265 1 -25 -2 -55 -6 -67 -5 -16
-3 -23 5 -23 8 0 10 -8 7 -21 -3 -12 2 -36 10 -55 16 -32 15 -46 -10 -231 -15
-109 -34 -236 -42 -283 -23 -135 -74 -488 -81 -564 -5 -47 -13 -75 -26 -88
-10 -10 -18 -21 -18 -25 0 -3 -10 -20 -23 -37 -12 -17 -29 -43 -36 -58 -15
-29 -38 -39 -27 -13 3 8 1 15 -3 15 -5 0 -11 -6 -14 -12 -2 -7 -6 4 -8 25 -3
20 -3 37 1 37 3 0 6 46 7 103 2 89 1 98 -10 70 -7 -17 -15 -35 -19 -39 -5 -4
-8 -13 -8 -20 0 -7 -16 -46 -35 -87 -19 -41 -35 -80 -35 -86 0 -6 15 -11 34
-11 61 0 86 -50 86 -173 0 -120 -56 -433 -103 -577 -94 -284 -279 -717 -357
-830 -9 -14 -27 -52 -39 -85 -13 -33 -32 -78 -44 -100 -55 -106 -66 -131 -67
-148 0 -26 -39 -99 -49 -92 -20 12 -68 -51 -81 -105 -15 -63 -66 -170 -115
-242 -19 -27 -37 -59 -41 -71 -3 -12 -30 -60 -59 -107 -29 -47 -69 -114 -89
-150 -175 -309 -219 -373 -253 -378 -18 -3 -23 2 -23 20 0 13 -5 29 -10 34 -7
7 -2 35 16 85 40 115 51 164 68 294 19 141 22 162 42 236 7 31 14 78 14 103 0
25 5 46 10 46 14 0 13 33 -2 48 -6 6 -12 47 -13 92 -2 70 1 84 21 112 13 18
24 40 24 50 0 10 7 30 16 43 9 14 14 32 10 40 -3 9 -2 13 4 10 5 -3 21 14 36
37 15 24 32 48 39 53 26 23 68 89 76 121 11 39 46 76 68 72 9 -2 22 -15 30
-29 12 -22 13 -34 3 -67 -7 -23 -19 -48 -28 -57 -8 -8 -12 -15 -8 -15 4 0 -3
-9 -16 -20 -13 -11 -27 -20 -31 -20 -5 0 -6 -6 -3 -14 3 -8 -18 -61 -47 -118
-81 -160 -86 -171 -93 -204 -4 -18 -16 -40 -27 -50 -13 -11 -19 -30 -19 -56 0
-35 2 -38 15 -24 8 8 15 22 15 30 0 9 5 16 10 16 6 0 10 -4 10 -10 0 -5 15 -1
33 9 17 10 52 20 77 24 35 4 51 13 72 39 15 18 39 47 54 63 30 35 76 133 68
146 -3 5 0 9 5 9 6 0 11 6 11 14 0 7 7 20 16 27 13 11 31 45 36 69 1 3 8 11
15 18 20 21 27 61 14 85 -7 12 -19 36 -28 52 -40 74 8 412 96 675 55 164 55
164 5 168 -41 3 -43 5 -68 63 -28 66 -32 66 -79 12 -37 -42 -67 -44 -67 -4 0
39 19 93 41 114 33 31 20 38 -21 12 -22 -14 -42 -25 -44 -25 -3 0 -27 -13 -52
-30 -26 -16 -49 -28 -52 -26 -7 8 32 72 72 117 77 86 97 114 121 164 25 55 43
121 25 95 -8 -13 -10 -13 -10 0 0 23 -26 -20 -32 -53 -3 -15 -1 -30 4 -33 5
-3 -14 -28 -43 -54 -29 -27 -57 -46 -61 -44 -11 7 1 54 22 84 9 14 29 52 45
85 15 33 36 71 47 84 l19 25 6 -22 c3 -12 9 -22 14 -22 10 0 13 26 10 82 -2
27 2 40 13 44 8 3 20 21 26 40 6 19 15 34 20 34 5 0 12 9 15 20 9 27 25 25 25
-2 -1 -23 -23 -62 -31 -54 -4 4 -4 -46 0 -69 2 -17 31 46 31 69 0 13 11 33 24
45 16 15 26 38 30 70 3 26 13 56 21 67 8 10 15 31 15 47 0 15 4 27 8 27 13 0
35 46 36 76 1 19 10 32 31 44 26 14 36 34 72 135 23 66 51 153 63 195 13 41
36 101 51 132 16 32 29 63 29 70 0 8 18 49 40 92 22 43 39 81 37 83 -2 2 -16
-6 -30 -18 -39 -30 -68 -22 -91 25 -39 81 -10 380 65 651 39 145 128 417 140
430 5 5 9 15 9 22 0 7 15 46 34 86 18 40 37 84 41 97 4 14 13 32 20 40 6 8 18
31 25 50 8 19 16 37 19 40 11 10 51 92 51 105 0 8 9 16 19 20 11 3 22 14 25
23 7 19 73 94 97 108 8 5 23 20 32 34 17 24 17 24 17 2 0 -12 8 -31 18 -42 9
-11 25 -42 35 -68 9 -26 15 -34 12 -19 -3 17 -2 26 4 23 5 -3 8 5 7 18 0 13
-5 22 -9 19 -5 -3 -4 4 2 15 6 11 11 36 11 55 0 18 3 37 7 40 10 11 12 78 2
71 -5 -3 -9 5 -9 18 0 18 2 20 10 8 9 -13 10 -13 10 1 0 25 24 69 31 57 4 -6
12 -7 19 -3z m-6650 -41 c0 -8 7 -14 15 -14 8 0 15 4 15 10 0 6 10 5 25 -2 32
-14 35 -62 5 -78 -11 -6 -20 -20 -20 -31 0 -21 -24 -52 -33 -43 -3 3 -13 -9
-23 -28 -9 -18 -22 -37 -28 -41 -6 -5 39 -5 99 -2 266 15 539 -46 743 -167 85
-50 210 -180 254 -263 76 -146 77 -316 1 -459 -15 -28 -63 -87 -108 -131 -67
-68 -97 -88 -185 -132 -58 -28 -118 -54 -135 -58 -16 -5 -34 -9 -40 -11 -160
-41 -353 -54 -498 -35 -327 44 -597 193 -719 397 -122 204 -100 423 59 595 59
63 185 159 209 159 8 0 24 16 36 35 19 29 29 35 60 35 20 0 38 -5 40 -10 2 -6
16 2 31 16 16 14 26 29 23 32 -3 3 -15 -3 -26 -13 -17 -16 -20 -16 -20 -2 0 9
-6 19 -12 23 -7 4 -10 4 -6 0 12 -14 -15 -35 -29 -24 -10 8 -7 18 14 42 14 17
33 30 42 29 9 -1 11 0 4 3 -18 8 5 47 59 105 62 65 75 74 92 60 11 -9 15 -6
20 15 6 21 9 24 21 14 8 -7 15 -19 15 -26z m2746 -1 c19 -20 21 -28 12 -35
-11 -6 -11 -10 0 -16 9 -6 7 -13 -9 -28 l-22 -19 7 28 c8 36 -1 70 -17 61 -7
-4 -9 -4 -5 1 4 4 0 14 -10 21 -16 13 -16 13 1 14 10 0 29 -12 43 -27z m9 17
c3 -5 1 -10 -4 -10 -6 0 -11 5 -11 10 0 6 2 10 4 10 3 0 8 -4 11 -10z m-411
-86 c4 -10 12 -14 22 -10 23 9 75 -21 68 -39 -4 -8 -2 -15 4 -15 6 0 12 5 14
10 2 6 19 -3 37 -19 19 -17 42 -33 52 -36 12 -4 16 -12 12 -22 -4 -11 -2 -14
5 -9 15 9 15 -3 -1 -29 -21 -34 -78 -31 -119 7 -7 7 -30 24 -50 38 -21 14 -38
30 -38 35 0 6 -13 16 -30 23 -19 9 -30 21 -30 33 0 11 -4 17 -10 14 -5 -3 -10
0 -10 8 0 10 9 13 31 11 18 -2 28 0 24 6 -3 6 -2 10 3 10 6 0 13 -7 16 -16z
m2190 -76 c-4 -7 -2 -8 5 -4 11 7 55 -19 95 -56 29 -27 192 -105 284 -137 95
-33 105 -39 74 -48 -12 -3 -22 -10 -22 -15 0 -5 -6 -6 -12 -1 -26 16 -38 11
-38 -15 0 -21 2 -24 10 -12 6 9 10 10 10 3 0 -17 -53 -52 -92 -60 -29 -5 -64
-21 -132 -60 -14 -9 -22 -9 -27 -1 -4 6 -10 -3 -13 -19 -4 -17 -18 -36 -31
-43 -14 -7 -25 -17 -25 -22 0 -5 -4 -6 -10 -3 -6 3 -10 -4 -11 -17 0 -13 -3
-17 -6 -10 -2 6 -15 12 -29 12 -18 0 -22 4 -18 18 4 15 4 16 -7 1 -12 -15 -15
-15 -43 1 -17 9 -42 15 -55 13 -13 -2 -29 3 -35 12 -7 10 -18 13 -29 9 -21 -8
-23 -34 -1 -34 8 0 12 5 9 10 -3 6 -1 10 4 10 6 0 11 -7 11 -15 0 -10 10 -15
31 -15 26 0 30 -3 24 -17 -11 -28 -15 -54 -7 -49 4 2 13 -2 20 -10 9 -10 10
-14 1 -14 -6 0 -18 -8 -25 -17 -13 -17 -14 -16 -20 5 -5 18 -9 20 -15 10 -6
-9 -9 -5 -9 13 0 33 -26 57 -42 41 -9 -9 -7 -12 11 -12 19 0 21 -4 16 -22 -9
-30 -26 -47 -18 -19 4 17 2 20 -12 14 -13 -4 -16 -3 -11 5 5 8 0 12 -14 12
-18 0 -19 -3 -10 -20 6 -11 16 -20 22 -20 9 0 9 -3 0 -12 -19 -19 -14 -30 7
-18 27 14 34 13 27 -5 -3 -9 0 -15 10 -15 8 0 13 3 10 8 -2 4 13 8 34 8 30 1
37 -2 33 -15 -3 -11 4 -22 19 -28 19 -10 20 -12 5 -12 -10 -1 -16 -5 -13 -10
3 -5 -3 -11 -14 -14 -12 -3 -24 1 -30 11 -8 15 -9 15 -10 -1 0 -10 -5 -15 -11
-12 -6 4 -9 0 -7 -11 2 -14 -3 -19 -24 -19 -28 -1 -28 15 0 16 14 0 13 2 -3 8
-11 5 -23 7 -27 5 -3 -2 -4 5 -1 16 3 11 12 19 21 18 22 -4 27 20 5 24 -34 7
-63 -4 -63 -23 0 -12 5 -16 14 -13 11 4 13 0 9 -15 -5 -18 -8 -19 -21 -9 -13
11 -15 10 -9 -4 5 -15 2 -16 -19 -7 -14 5 -30 6 -36 3 -7 -4 -8 -2 -4 4 4 7 3
12 -3 12 -5 0 -13 -5 -16 -10 -4 -6 -19 3 -36 20 -23 22 -38 29 -64 28 -21 -1
-43 6 -54 16 -12 11 -21 14 -26 7 -3 -6 -14 -11 -23 -11 -14 0 -14 2 -3 9 7 5
10 14 7 20 -10 16 -26 13 -26 -5 0 -8 -4 -13 -9 -10 -5 4 -12 0 -14 -6 -3 -7
-6 -1 -6 14 -1 25 -21 53 -21 29 0 -6 -7 -8 -15 -5 -9 4 -18 -1 -21 -11 -6
-14 -10 -11 -20 15 -8 17 -18 29 -23 25 -6 -3 -8 3 -6 15 4 20 -18 29 -29 12
-7 -12 24 -53 35 -47 5 4 9 -1 9 -9 0 -26 -13 -18 -44 26 -17 23 -26 39 -20
36 5 -3 15 0 22 8 7 8 9 14 3 14 -5 0 -8 11 -6 25 2 22 0 23 -13 13 -13 -11
-15 -10 -9 4 3 10 2 20 -3 23 -11 7 -32 -30 -22 -40 4 -5 2 -5 -5 -1 -7 4 -9
14 -6 24 3 9 3 14 -2 10 -11 -11 -36 12 -28 25 3 5 1 7 -5 3 -9 -5 -52 42 -52
58 0 15 18 4 23 -15 3 -12 10 -18 16 -14 15 9 14 28 -1 19 -7 -4 -5 2 5 13 19
22 18 60 -2 73 -10 5 -10 9 -2 14 6 4 9 12 6 17 -4 5 1 9 9 9 8 0 22 10 31 23
12 15 19 18 22 10 6 -17 23 -16 23 1 0 21 25 26 48 10 15 -10 27 -11 44 -5 13
6 17 10 10 10 -10 1 -10 4 0 15 11 11 15 8 27 -18 8 -17 17 -49 22 -71 l8 -40
-4 45 c-3 25 -8 59 -11 76 l-6 31 70 18 c39 9 75 15 79 12 14 -8 53 12 53 26
0 17 -68 31 -84 18 -14 -11 -60 19 -64 42 -2 9 -2 17 0 18 30 8 274 31 368 35
138 5 155 8 144 25 -4 8 -3 9 5 5 6 -4 8 -12 5 -18z m-1624 -28 c15 -11 30
-17 34 -13 3 3 6 -8 6 -25 0 -28 -3 -31 -27 -28 -40 6 -83 27 -83 42 0 7 -5
14 -12 16 -6 2 -8 10 -4 16 11 18 55 14 86 -8z m1090 -44 c0 -3 -4 -8 -10 -11
-5 -3 -10 -1 -10 4 0 6 5 11 10 11 6 0 10 -2 10 -4z m-1394 -18 c4 -7 4 -10
-1 -6 -4 4 -14 0 -21 -10 -12 -15 -12 -15 -7 6 6 24 18 29 29 10z m731 -138
c-3 -11 -1 -20 4 -20 5 0 9 -4 9 -8 0 -16 -54 -36 -100 -38 -25 -2 -47 -3 -50
-4 -17 -7 -120 -3 -120 4 0 4 -7 6 -15 2 -8 -3 -15 0 -16 7 0 9 -2 9 -6 0 -7
-20 -58 -15 -77 6 -16 17 -16 19 0 25 9 4 26 4 37 0 11 -3 17 -2 14 3 -8 13
80 34 123 29 19 -2 55 0 80 4 25 4 62 8 84 9 34 1 38 -1 33 -19z m228 -50 c4
-7 14 -6 28 1 l22 12 -20 -23 -20 -24 38 22 c21 12 35 17 31 10 -5 -8 -2 -9 9
-5 14 5 17 0 18 -26 1 -22 3 -25 6 -10 4 21 33 41 33 23 0 -6 -5 -10 -11 -10
-5 0 -8 -4 -4 -10 3 -5 13 -7 23 -4 14 5 15 4 2 -5 -10 -7 -11 -11 -2 -11 6 0
12 -7 12 -15 0 -8 -7 -15 -16 -15 -8 0 -13 4 -9 9 3 5 1 12 -5 16 -5 3 -10 -3
-10 -14 0 -31 -12 -25 -43 19 -16 22 -33 37 -38 34 -6 -4 -2 -15 10 -28 14
-15 17 -26 11 -36 -5 -8 -10 -19 -10 -25 1 -5 5 -2 11 8 8 14 14 16 25 6 10
-8 11 -15 4 -25 -9 -9 -7 -11 8 -8 12 4 22 -2 30 -20 9 -21 9 -24 -3 -19 -9 3
-15 -1 -15 -8 0 -8 -6 -5 -16 7 -8 10 -13 13 -9 6 5 -9 -1 -11 -22 -8 -15 3
-29 10 -31 16 -2 5 -11 10 -19 10 -9 0 -13 -6 -9 -15 7 -18 -5 -20 -22 -3 -7
7 -12 8 -12 3 0 -6 -5 -3 -10 5 -5 8 -17 15 -27 15 -10 0 -17 5 -16 12 2 7 -3
10 -11 7 -8 -3 -25 6 -38 19 -23 23 -24 25 -6 36 10 6 18 18 18 27 0 11 6 14
21 9 18 -6 20 -4 15 13 -5 16 -3 19 18 15 13 -3 27 0 30 6 9 14 23 14 31 1z
m-11262 -72 c9 -6 9 -8 0 -8 -7 0 -13 -5 -13 -11 0 -5 5 -7 10 -4 6 3 10 1 10
-4 0 -6 -5 -11 -12 -11 -6 0 -3 -7 8 -15 12 -9 14 -14 6 -15 -10 0 -9 -5 3
-17 16 -16 16 -18 -1 -31 -19 -14 -19 -15 0 -8 15 5 17 2 13 -14 -3 -11 -1
-22 4 -25 4 -3 6 -12 2 -20 -3 -10 1 -15 13 -16 18 0 17 -1 -1 -9 -11 -5 -15
-9 -8 -9 12 -1 13 -8 14 -63 1 -16 4 -26 8 -24 3 2 7 -10 7 -27 3 -68 9 -105
18 -99 5 3 7 -2 3 -11 -3 -10 -2 -17 3 -17 5 0 7 -7 4 -15 -4 -8 -2 -15 3 -15
5 0 8 -21 8 -46 -1 -31 3 -48 13 -51 11 -5 11 -7 0 -14 -9 -6 -9 -9 -1 -9 7 0
15 -17 19 -37 4 -21 13 -45 21 -55 10 -11 11 -18 4 -23 -7 -4 -8 -12 -1 -24 5
-10 6 -21 3 -25 -3 -3 -1 -6 5 -6 15 0 16 -37 1 -46 -7 -4 -8 -9 -1 -13 6 -3
11 -29 13 -56 1 -28 5 -54 8 -60 9 -16 10 -65 1 -65 -4 0 -10 -13 -12 -29 -2
-17 -1 -28 4 -25 4 3 8 1 8 -5 0 -5 -5 -13 -11 -17 -8 -4 -7 -9 2 -15 10 -6 6
-9 -13 -9 -14 0 -29 -6 -32 -12 -3 -7 -4 -4 -1 8 3 12 -1 27 -10 34 -8 7 -15
23 -15 36 0 12 -4 33 -9 46 -5 13 -8 26 -7 29 0 3 -5 13 -11 21 -7 8 -11 24
-8 37 2 12 0 19 -6 16 -5 -4 -9 5 -9 19 0 13 6 27 13 29 7 3 5 6 -5 6 -14 1
-18 10 -18 36 0 19 -4 35 -8 35 -4 0 -8 15 -9 33 -2 46 -13 119 -20 137 -3 8
-5 25 -4 37 1 12 -3 41 -10 65 -12 47 -15 64 -24 187 -3 46 -8 88 -11 93 -3 4
1 8 8 8 10 0 10 2 1 8 -14 9 -15 102 -1 102 5 0 2 7 -7 16 -9 9 -14 23 -11 31
3 8 6 28 6 44 0 21 4 28 13 23 6 -4 4 2 -6 13 -14 16 -15 22 -5 25 7 3 17 -4
21 -16 4 -11 13 -24 20 -28z m13903 -14 c-4 -9 -9 -15 -11 -12 -3 3 -3 13 1
22 4 9 9 15 11 12 3 -3 3 -13 -1 -22z m-3926 -94 c0 10 35 9 46 -2 3 -4 12 -4
20 -1 25 9 15 -8 -23 -43 -43 -38 -57 -41 -101 -18 -39 19 -40 27 -6 53 20 16
31 18 45 10 13 -6 19 -6 19 1z m390 -10 c-12 -22 -40 -27 -40 -7 0 19 10 27
32 27 16 0 17 -3 8 -20z m-530 -13 c0 -7 -4 -6 -10 3 -8 13 -10 13 -10 -2 0
-9 6 -18 13 -21 6 -3 2 -4 -10 -4 -12 1 -20 4 -19 7 2 3 6 13 9 23 7 19 27 14
27 -6z m349 8 c6 -3 11 -15 11 -26 0 -15 -7 -19 -34 -19 -19 0 -37 4 -41 10
-9 14 -35 0 -29 -15 4 -9 -1 -14 -13 -14 -10 0 -30 -2 -46 -4 -24 -4 -26 -2
-15 11 42 52 73 70 115 67 23 -2 47 -6 52 -10z m-425 -10 c-4 -8 -10 -15 -16
-15 -5 0 -6 -5 -2 -12 5 -7 3 -8 -5 -4 -9 6 -8 13 5 27 21 23 25 24 18 4z
m1491 5 c13 -6 15 -9 5 -9 -8 0 -22 4 -30 9 -18 12 -2 12 25 0z m-1565 -31 c0
-10 5 -19 10 -19 6 0 10 9 10 19 0 29 15 33 17 5 4 -50 7 -59 18 -70 6 -6 26
-15 43 -19 18 -3 32 -11 32 -16 0 -6 4 -8 9 -5 5 4 21 2 36 -4 23 -9 27 -15
23 -40 -6 -39 11 -39 18 -1 5 26 9 28 25 18 10 -6 17 -20 16 -32 -1 -14 3 -19
16 -17 23 4 22 -7 -5 -30 -18 -16 -34 -19 -83 -16 -34 3 -66 8 -73 12 -7 4
-17 4 -24 0 -6 -4 -26 -8 -44 -9 -18 0 -36 -4 -40 -8 -14 -13 -34 -7 -35 11 0
13 -2 14 -6 2 -3 -8 -10 -18 -16 -21 -22 -15 -137 13 -137 33 0 5 -5 6 -12 2
-8 -5 -9 -2 -5 10 4 9 3 14 -2 11 -5 -3 -12 -1 -16 5 -3 6 3 10 15 10 17 0 20
4 15 20 -5 14 -2 20 9 20 9 0 16 -6 17 -12 0 -9 2 -9 5 -2 3 7 15 10 27 7 20
-4 20 -3 6 9 -14 12 -15 16 -4 32 8 10 18 15 24 11 15 -9 14 8 -1 23 -10 10
-6 17 6 10 2 -2 13 5 24 15 16 14 24 16 47 7 39 -15 43 -5 6 15 -38 19 -39 24
-6 17 21 -4 24 -1 18 13 -4 13 -3 16 5 11 7 -4 12 -16 12 -27z m4032 -1 c-7
-7 -12 -8 -12 -2 0 14 12 26 19 19 2 -3 -1 -11 -7 -17z m-1496 -5 c12 -7 23
-10 26 -8 2 2 5 -5 5 -16 2 -20 1 -20 -17 -4 -18 17 -38 6 -25 -15 3 -6 -1 -7
-9 -4 -18 7 -22 34 -6 34 6 0 10 4 10 10 0 5 -6 7 -14 4 -8 -3 -17 -1 -20 4
-8 13 24 9 50 -5z m-12 -112 c4 -5 -3 -7 -14 -4 -23 6 -26 13 -6 13 8 0 17 -4
20 -9z m1436 -15 c0 -3 -4 -8 -10 -11 -5 -3 -10 -1 -10 4 0 6 5 11 10 11 6 0
10 -2 10 -4z m-2860 -47 c0 -4 9 -9 21 -12 12 -3 18 -10 14 -16 -4 -7 3 -11
17 -12 l23 0 -25 -10 c-20 -8 -27 -6 -38 8 -7 10 -17 17 -22 16 -17 -5 -61 17
-55 27 7 11 65 10 65 -1z m-453 -63 c4 -5 -1 -7 -14 -3 -13 3 -23 1 -23 -4 0
-5 5 -9 10 -9 6 0 10 -7 10 -15 0 -9 6 -12 18 -8 14 5 14 3 -3 -11 -19 -16
-19 -17 -1 -12 15 5 17 4 8 -7 -7 -8 -8 -18 -4 -23 4 -5 -3 0 -16 10 -14 12
-41 21 -69 22 -26 2 -53 10 -62 18 -13 14 -13 17 4 33 20 19 126 26 142 9z
m556 -18 c12 -7 23 -13 25 -14 1 -1 0 -9 -4 -18 -9 -23 -44 -21 -44 4 0 10 -8
24 -17 29 -17 10 -17 10 0 11 9 0 27 -6 40 -12z m-774 -35 c0 -11 -3 -13 -6
-5 -2 6 -10 9 -15 6 -7 -4 -8 -2 -4 4 11 18 26 14 25 -5z m817 -20 c-10 -10
-19 5 -10 18 6 11 8 11 12 0 2 -7 1 -15 -2 -18z m-1193 -24 c11 -10 27 -19 34
-19 27 0 48 -34 45 -72 -3 -39 -21 -60 -55 -65 -12 -2 -23 -8 -25 -13 -2 -6
-10 -10 -18 -10 -9 0 -12 4 -9 10 3 6 -1 7 -10 4 -21 -8 -82 22 -118 59 -19
19 -32 27 -35 19 -2 -7 -8 -12 -14 -12 -5 0 -6 9 -2 23 4 12 7 30 6 41 0 10 7
20 19 23 10 3 19 10 19 15 0 5 4 7 8 4 5 -3 21 -2 35 2 55 14 98 11 120 -9z
m564 -5 c-3 -3 -12 -4 -19 -1 -8 3 -5 6 6 6 11 1 17 -2 13 -5z m-457 -24 c0
-5 -2 -10 -4 -10 -3 0 -8 5 -11 10 -3 6 -1 10 4 10 6 0 11 -4 11 -10z m-397
-29 c19 -19 -10 -19 -39 0 l-29 20 29 -5 c16 -3 33 -9 39 -15z m414 -3 c-3 -8
-6 -5 -6 6 -1 11 2 17 5 13 3 -3 4 -12 1 -19z m-521 -5 c-5 -15 -4 -15 9 1 9
12 15 15 15 7 0 -8 6 -11 15 -7 9 3 18 -1 21 -9 8 -20 54 -19 82 1 12 8 22 11
22 5 0 -5 -9 -13 -20 -16 -23 -7 -27 -25 -6 -25 7 0 19 -7 26 -15 10 -12 9
-15 -6 -15 -15 0 -14 -3 6 -13 14 -7 26 -18 26 -25 1 -7 2 -16 3 -22 0 -5 8
-10 17 -10 13 0 15 -7 10 -30 -3 -19 -2 -29 4 -25 6 3 10 2 10 -3 0 -15 -32
-24 -44 -12 -13 13 -29 13 -21 1 3 -5 1 -12 -5 -16 -5 -3 -10 0 -10 7 -1 7 -7
-1 -14 -18 -8 -17 -22 -34 -32 -38 -17 -6 -17 -6 -1 12 9 10 14 21 11 25 -11
11 -46 -14 -40 -28 3 -9 0 -12 -8 -9 -8 3 -17 0 -21 -5 -3 -6 -10 -9 -15 -6
-5 3 -11 1 -14 -4 -4 -5 -20 -7 -36 -5 -23 4 -30 1 -30 -11 0 -12 -4 -13 -18
-6 -11 6 -24 6 -36 -1 -21 -12 -36 -1 -16 12 14 9 7 14 -12 11 -5 0 -8 11 -8
27 0 21 2 24 10 12 8 -12 10 -9 10 13 0 18 5 27 16 27 14 0 14 3 4 15 -10 12
-10 15 1 15 12 0 12 2 0 9 -16 10 -6 31 15 31 8 0 14 10 14 23 0 29 23 51 73
72 20 8 37 20 37 25 0 11 -38 -2 -74 -25 -22 -15 -24 -14 -29 5 -4 17 -2 20
14 15 12 -4 19 -2 19 7 0 13 19 38 28 38 2 0 1 -8 -2 -17z m884 -4 c0 -6 -4
-7 -10 -4 -5 3 -10 11 -10 16 0 6 5 7 10 4 6 -3 10 -11 10 -16z m-3801 -23 c8
-9 8 -16 2 -20 -6 -4 -15 3 -21 14 -12 23 2 27 19 6z m4013 -39 c44 -20 55
-35 33 -43 -13 -6 -14 -8 -3 -15 10 -7 9 -9 -5 -9 -15 0 -16 -3 -7 -21 15 -27
5 -36 -17 -17 -25 21 -80 41 -95 35 -8 -4 -7 -6 5 -6 9 -1 17 -6 17 -12 0 -5
3 -8 8 -6 4 3 30 -11 57 -30 47 -32 48 -34 20 -31 -16 2 -29 8 -28 13 1 6 -23
23 -53 39 -29 16 -52 32 -49 36 2 4 -4 15 -15 25 -10 9 -17 22 -14 29 3 7 -5
17 -17 22 -16 7 -2 10 52 9 46 -1 88 -7 111 -18z m-3876 -35 c-4 -3 -14 2 -24
12 -16 18 -16 18 6 6 13 -6 21 -14 18 -18z m2699 -10 c6 -21 5 -22 -14 -10
-13 8 -16 15 -9 19 6 4 7 13 3 20 -5 10 -5 11 2 4 6 -5 14 -20 18 -33z m1775
23 c55 -31 75 -38 128 -44 6 0 12 -5 12 -10 0 -6 -9 -8 -21 -6 -17 3 -18 1
-10 -9 7 -8 25 -13 42 -12 17 1 33 -2 36 -7 3 -6 1 -7 -5 -3 -24 15 -21 -16 4
-39 26 -24 26 -25 5 -25 -11 0 -20 6 -18 13 1 8 -11 12 -37 12 -22 1 -41 6
-44 13 -2 7 -10 12 -17 12 -8 0 -17 10 -20 21 -6 17 -9 19 -16 8 -6 -10 -9
-11 -9 -1 0 6 -7 12 -15 12 -8 0 -15 5 -15 10 0 6 -12 10 -27 10 -16 0 -35 5
-43 11 -13 9 -12 10 3 5 9 -3 17 -1 17 4 0 6 -9 10 -20 10 -17 0 -19 2 -8 15
17 18 46 19 78 0z m-1196 -7 c-3 -4 -12 -8 -20 -8 -8 0 -14 4 -14 8 0 4 9 8
19 8 11 0 17 -4 15 -8z m3600 -3 c-6 -16 -24 -21 -24 -7 0 11 11 22 21 22 5 0
6 -7 3 -15z m-1948 -25 c0 -11 -4 -20 -8 -20 -4 0 -8 9 -8 20 0 11 4 20 8 20
4 0 8 -9 8 -20z m2111 -22 c-3 -7 -5 -2 -5 12 0 14 2 19 5 13 2 -7 2 -19 0
-25z m-6965 2 c18 -11 29 -20 23 -20 -5 0 -23 9 -40 20 -39 26 -25 26 17 0z
m4721 5 c-3 -9 -8 -14 -10 -11 -3 3 -2 9 2 15 9 16 15 13 8 -4z m58 -15 c6 0
7 5 3 12 -4 7 -3 8 4 4 27 -16 12 -36 -25 -35 -21 1 -30 3 -20 6 9 2 17 12 18
21 0 11 2 12 6 5 2 -7 9 -13 14 -13z m119 16 c0 -11 -19 -15 -25 -6 -3 5 1 10
9 10 9 0 16 -2 16 -4z m1880 -6 c0 -5 -4 -10 -10 -10 -5 0 -10 5 -10 10 0 6 5
10 10 10 6 0 10 -4 10 -10z m-1950 -10 c0 -5 -4 -10 -10 -10 -5 0 -10 5 -10
10 0 6 5 10 10 10 6 0 10 -4 10 -10z m-609 -30 c12 0 23 -10 30 -26 5 -15 8
-27 7 -28 -2 0 -13 -7 -25 -13 -31 -18 -188 -29 -197 -15 -4 6 -13 9 -20 6 -7
-3 -19 2 -26 11 -9 10 -16 12 -20 5 -4 -7 -18 -7 -46 0 -35 8 -35 9 -6 6 21
-2 32 2 32 11 0 7 9 13 19 13 11 0 23 5 27 11 3 6 17 8 29 5 13 -3 25 -2 27 4
4 12 142 29 146 18 2 -5 12 -8 23 -8z m-359 -25 c0 -8 1 -21 2 -27 1 -7 6 -16
11 -20 6 -4 2 -8 -9 -8 -13 0 -17 5 -13 19 2 10 0 26 -5 35 -6 10 -5 16 2 16
5 0 11 -7 12 -15z m932 7 c3 -5 -1 -9 -9 -9 -8 0 -15 4 -15 9 0 4 4 8 9 8 6 0
12 -4 15 -8z m-4884 -11 c0 -5 -9 -7 -20 -4 -11 3 -20 7 -20 9 0 2 9 4 20 4
11 0 20 -4 20 -9z m220 -12 c17 -13 18 -17 5 -10 -33 17 -51 31 -40 31 6 0 21
-10 35 -21z m4726 6 c-36 -19 -45 -19 -20 0 10 8 26 14 34 15 8 0 2 -7 -14
-15z m-4870 -16 c3 -5 -1 -9 -10 -9 -21 0 -46 11 -46 20 0 10 49 0 56 -11z
m3781 15 c-3 -3 -12 -4 -19 -1 -8 3 -5 6 6 6 11 1 17 -2 13 -5z m1163 -1 c-8
-3 -20 -12 -27 -20 -6 -8 -17 -12 -23 -8 -18 11 9 35 39 34 15 0 20 -3 11 -6z
m24 -18 c-4 -8 -11 -15 -16 -15 -6 0 -5 6 2 15 7 8 14 15 16 15 2 0 1 -7 -2
-15z m-1114 -5 c0 -5 -2 -10 -4 -10 -3 0 -8 5 -11 10 -3 6 -1 10 4 10 6 0 11
-4 11 -10z m1188 -15 c-3 -3 -9 2 -12 12 -6 14 -5 15 5 6 7 -7 10 -15 7 -18z
m-11427 -46 c-5 -26 -9 -34 -10 -19 -1 27 9 73 15 67 2 -2 0 -23 -5 -48z
m6630 24 c23 -15 37 -29 31 -31 -6 -2 -30 11 -53 27 -52 38 -34 41 22 4z
m3594 17 c3 -6 -1 -7 -9 -4 -18 7 -21 14 -7 14 6 0 13 -4 16 -10z m-3729 -15
c17 -13 16 -14 -16 -3 -43 14 -49 18 -24 18 11 0 29 -7 40 -15z m59 -35 c3 -5
1 -10 -4 -10 -6 0 -11 5 -11 10 0 6 2 10 4 10 3 0 8 -4 11 -10z m75 -10 c13
-8 13 -10 -2 -10 -9 0 -20 5 -23 10 -8 13 5 13 25 0z m2335 0 c-3 -5 -11 -10
-16 -10 -6 0 -7 5 -4 10 3 6 11 10 16 10 6 0 7 -4 4 -10z m-8949 -58 c-11 -10
-14 3 -8 33 l7 30 3 -28 c2 -16 1 -31 -2 -35z m6710 17 c7 -12 -8 -11 -40 1
-37 14 -33 32 4 18 17 -5 33 -14 36 -19z m2247 14 c-7 -2 -19 -2 -25 0 -7 3
-2 5 12 5 14 0 19 -2 13 -5z m-2096 -56 c31 -11 50 -23 44 -25 -7 -2 -23 0
-34 6 -12 6 -46 16 -75 22 -28 7 -55 17 -58 22 -9 15 53 2 123 -25z m1997 18
c-4 -8 -1 -22 6 -30 13 -16 3 -20 -17 -7 -13 8 -6 52 8 52 5 0 6 -7 3 -15z
m2040 -5 c-5 -5 -25 -12 -44 -15 -35 -5 -35 -5 5 9 50 18 51 18 39 6z m2223
-12 c-3 -8 -6 -5 -6 6 -1 11 2 17 5 13 3 -3 4 -12 1 -19z m-1802 2 c250 -36
477 -139 638 -289 138 -130 197 -250 196 -401 0 -105 -14 -167 -57 -246 -42
-76 -110 -150 -192 -206 -35 -24 -65 -48 -67 -53 -6 -18 51 -45 100 -48 9 -1
17 -7 17 -14 0 -15 32 -33 58 -33 11 0 23 -7 26 -16 3 -9 13 -14 21 -11 17 7
29 -24 20 -53 -4 -11 -2 -20 4 -20 15 0 14 -12 -3 -35 -12 -17 -16 -17 -30 -6
-9 8 -19 11 -23 7 -3 -3 -2 -6 4 -6 6 0 13 -11 16 -25 4 -24 3 -25 -14 -9 -15
13 -22 14 -33 5 -12 -10 -17 -8 -27 11 -7 13 -12 26 -11 31 1 4 -5 7 -13 7 -8
0 -28 14 -44 30 -16 17 -53 43 -82 58 -30 16 -65 35 -79 44 -22 14 -36 14
-125 3 -55 -8 -113 -16 -130 -20 -16 -3 -70 -8 -120 -11 -115 -7 -144 -12
-124 -24 12 -8 12 -13 1 -31 -12 -19 -11 -24 7 -43 18 -18 24 -19 42 -8 25 16
39 8 32 -18 -4 -15 -2 -19 10 -14 10 3 17 -2 22 -15 4 -15 18 -22 53 -27 51
-7 96 -30 87 -44 -3 -4 11 -14 30 -20 38 -13 46 -35 16 -45 -20 -6 -109 3
-125 12 -5 3 -23 7 -40 9 -82 9 -111 18 -101 34 11 18 -65 46 -117 42 -10 0
-18 3 -18 8 0 5 -9 7 -20 5 -11 -2 -18 0 -15 4 5 8 -41 26 -57 23 -5 -1 -8 3
-8 10 0 6 -3 8 -7 5 -3 -4 -12 -2 -20 5 -7 6 -28 11 -46 10 -46 -1 -57 13 -57
72 0 46 -4 56 -32 82 -44 41 -116 91 -217 150 -227 133 -385 363 -384 560 0
176 136 359 340 458 167 81 310 114 498 115 72 0 162 -4 200 -9z m-535 -25
c-46 -18 -64 -17 -25 0 17 8 37 14 45 14 8 0 -1 -7 -20 -14z m-10780 -11 c0
-8 -4 -12 -10 -9 -5 3 -10 10 -10 16 0 5 5 9 10 9 6 0 10 -7 10 -16z m6990
-14 c28 -11 60 -20 70 -20 11 0 20 -5 20 -11 0 -7 -7 -8 -17 -4 -10 3 -31 9
-48 12 -33 7 -107 43 -88 43 7 0 35 -9 63 -20z m3524 -26 c23 -9 20 -23 -9
-36 -13 -6 -22 -15 -18 -20 3 -6 -5 -5 -17 2 -21 11 -21 12 -3 26 16 12 16 15
3 24 -12 8 -11 10 7 10 12 0 28 -3 37 -6z m2441 -4 c-3 -5 -12 -7 -20 -3 -21
7 -19 13 6 13 11 0 18 -4 14 -10z m372 -22 c-3 -8 -6 -5 -6 6 -1 11 2 17 5 13
3 -3 4 -12 1 -19z m-6167 -8 c0 -5 -4 -10 -9 -10 -6 0 -13 5 -16 10 -3 6 1 10
9 10 9 0 16 -4 16 -10z m131 -40 c5 0 9 -4 9 -9 0 -12 -38 -2 -47 12 -4 7 0 8
11 4 10 -4 22 -7 27 -7z m-51 -34 c0 -2 -9 -6 -20 -9 -11 -3 -18 -1 -14 4 5 9
34 13 34 5z m30 -10 c0 -3 -4 -8 -10 -11 -5 -3 -10 -1 -10 4 0 6 5 11 10 11 6
0 10 -2 10 -4z m-1202 -54 c-3 -20 4 -36 24 -57 15 -16 26 -30 25 -31 -1 -1
-14 -4 -29 -8 -34 -8 -68 22 -68 60 0 21 3 24 21 19 19 -6 21 -4 15 19 -4 17
-2 26 5 26 7 0 10 -11 7 -28z m1289 6 c7 -6 13 -4 16 4 4 9 8 10 14 2 4 -6 32
-15 62 -19 37 -5 55 -12 58 -24 3 -12 17 -16 53 -17 27 -1 59 -9 72 -18 12 -9
18 -16 13 -16 -6 0 -2 -5 8 -11 9 -5 17 -16 17 -23 0 -28 55 -64 107 -71 47
-6 54 -4 75 18 l24 25 41 -19 c23 -10 56 -35 75 -55 54 -58 101 -77 188 -76
41 1 98 -5 125 -13 28 -8 77 -21 110 -30 33 -9 74 -23 92 -31 17 -8 41 -14 52
-14 27 0 116 -44 154 -76 22 -18 41 -24 78 -24 38 0 51 -4 56 -17 33 -99 100
-187 176 -234 28 -17 30 -16 85 13 70 37 73 40 28 27 -27 -8 -42 -6 -63 5 -20
11 -23 15 -10 16 9 0 17 5 17 11 0 6 17 9 43 8 24 -2 48 0 53 4 6 3 30 10 53
16 36 8 48 6 75 -10 17 -10 42 -19 56 -19 14 0 46 -11 73 -24 26 -14 62 -28
80 -31 17 -4 48 -16 67 -27 46 -27 104 -47 160 -58 42 -7 138 -38 205 -65 17
-7 41 -16 55 -20 14 -4 51 -21 83 -37 37 -18 91 -34 150 -43 97 -14 152 -31
214 -64 21 -11 55 -23 76 -26 29 -5 40 -12 48 -32 5 -14 12 -23 16 -20 3 4 17
-3 31 -13 13 -11 33 -20 42 -20 23 0 50 -31 33 -37 -16 -6 8 -33 29 -34 10 0
10 -2 1 -6 -18 -7 -16 -23 2 -23 9 0 18 7 22 16 3 9 8 11 12 6 4 -7 22 -3 49
9 45 21 90 19 115 -4 16 -16 76 -41 162 -67 39 -12 77 -25 85 -29 9 -5 36 -12
60 -16 25 -4 74 -21 110 -37 144 -66 128 -51 171 -163 23 -61 91 -174 126
-210 23 -24 61 -53 122 -94 43 -28 45 -31 49 -88 7 -112 7 -275 -1 -280 -5 -3
-8 -17 -7 -31 1 -15 1 -29 1 -32 -1 -3 -4 -31 -7 -63 -3 -32 -10 -70 -16 -85
-10 -25 -14 -47 -22 -112 -2 -14 -4 -26 -5 -26 0 -1 -20 2 -43 7 -29 7 -43 7
-48 -2 -6 -8 -9 -8 -14 0 -4 6 -2 11 4 11 6 0 8 5 4 12 -4 6 -3 8 4 4 5 -3 12
0 15 6 3 10 8 9 22 -2 11 -9 16 -10 11 -2 -4 6 -2 12 3 12 6 0 9 10 7 23 -2
15 -10 21 -22 20 -20 -3 -61 14 -81 34 -18 16 -16 23 4 23 15 0 14 2 -3 15
-10 8 -14 15 -7 15 6 0 19 -7 27 -16 9 -8 16 -11 16 -5 0 16 -38 51 -54 51 -8
0 -21 9 -29 20 -13 19 -15 16 -31 -46 -23 -91 -59 -158 -119 -221 -59 -62
-124 -102 -222 -135 -128 -42 -424 -29 -610 28 -70 22 -115 43 -115 55 0 5
-12 14 -27 20 -55 21 -89 40 -115 64 -15 14 -30 25 -33 25 -3 0 -36 24 -73 54
-293 235 -451 569 -383 811 21 75 21 86 0 60 -8 -8 -19 -21 -24 -28 -12 -14
-45 -81 -45 -92 0 -4 -7 -23 -17 -42 -14 -30 -14 -36 -2 -45 10 -7 7 -8 -13
-4 -25 6 -26 4 -20 -27 3 -17 6 -51 6 -74 0 -24 4 -43 8 -43 4 0 8 -5 8 -11 0
-5 -4 -7 -10 -4 -5 3 -10 1 -10 -4 0 -6 5 -11 10 -11 6 0 10 -6 10 -12 1 -18
47 -77 133 -171 39 -44 71 -83 70 -88 -2 -5 4 -9 12 -9 8 0 14 -3 13 -7 -1 -5
2 -30 7 -57 6 -37 4 -50 -6 -57 -8 -5 -10 -9 -5 -9 5 0 3 -7 -4 -15 -7 -8 -9
-15 -5 -15 5 0 -1 -8 -13 -18 -27 -24 -47 -72 -30 -72 7 0 2 -7 -10 -16 -29
-20 -28 -36 6 -56 20 -13 22 -18 10 -18 -10 0 -18 4 -18 9 0 20 -34 21 -52 1
-10 -11 -14 -20 -8 -20 5 0 10 -6 10 -14 0 -9 -7 -12 -20 -9 -11 3 -20 0 -20
-6 0 -6 4 -11 9 -11 5 0 7 -9 4 -21 -4 -15 0 -22 16 -26 32 -8 25 -26 -8 -18
-35 7 -44 -3 -25 -30 12 -15 14 -16 14 -3 0 9 -5 19 -10 21 -6 3 -5 4 2 3 7
-1 18 -13 25 -26 10 -21 9 -25 -10 -35 -13 -7 -29 -8 -39 -3 -28 14 -45 9 -24
-7 12 -9 15 -15 7 -15 -11 0 -11 -3 0 -16 12 -15 11 -16 -9 -10 -26 9 -29 -2
-6 -19 14 -10 12 -12 -14 -12 -30 0 -31 3 -65 101 -19 56 -42 126 -52 156 -23
78 -77 181 -143 275 -31 44 -61 85 -66 91 -6 6 -28 31 -48 56 -20 24 -62 64
-93 88 -31 25 -82 71 -113 103 -52 54 -98 88 -194 146 -57 34 -45 18 15 -20
88 -57 177 -136 177 -158 0 -12 -127 72 -210 138 -42 34 -126 91 -134 91 -2 0
-30 15 -63 33 -80 45 -261 112 -359 131 -45 9 -85 16 -90 15 -5 -1 -17 1 -28
6 -40 17 -310 -9 -407 -40 -15 -5 -19 -1 -19 18 0 27 20 40 48 30 9 -3 14 -3
10 1 -4 5 4 18 17 30 22 21 23 25 10 42 -14 18 -14 18 -10 -4 3 -18 1 -22 -11
-18 -9 3 -20 6 -25 6 -6 0 -7 5 -3 12 4 7 3 8 -4 4 -7 -4 -12 -2 -12 3 0 6
-10 11 -22 11 -27 0 -83 39 -57 40 9 0 22 -7 29 -15 7 -8 17 -12 22 -9 6 4 6
10 -1 17 -15 15 -14 27 4 27 16 0 16 20 0 33 -6 6 -5 10 3 14 9 4 10 8 2 18
-8 10 -6 17 7 27 10 7 19 19 21 27 3 12 1 12 -14 0 -16 -13 -16 -12 -5 9 9 17
9 22 -1 22 -9 0 -9 3 0 12 7 7 12 20 12 30 0 10 5 18 12 18 6 0 9 3 6 6 -4 3
0 21 8 39 23 57 15 64 -11 8 -29 -64 -118 -152 -194 -192 -94 -49 -171 -65
-306 -65 -229 1 -401 61 -645 224 -163 108 -309 280 -395 462 -110 235 -81
458 82 625 36 37 68 69 72 69 28 6 51 18 51 26 0 5 5 6 10 3 6 -3 10 -1 10 5
0 6 4 9 8 6 5 -3 37 4 71 14 125 39 349 23 536 -39 80 -26 86 -27 95 -11 5 10
6 20 3 24 -4 3 2 13 13 21 18 13 17 15 -4 19 -5 0 -16 9 -25 18 -12 12 -13 18
-4 21 17 6 79 -4 94 -15z m-112 -19 c-4 -5 2 -6 12 -2 17 6 17 5 0 -15 -11
-11 -16 -25 -12 -31 3 -7 0 -8 -9 -5 -9 3 -13 10 -10 15 3 5 -2 9 -10 9 -9 0
-16 5 -16 11 0 6 -7 9 -15 5 -8 -3 -15 -1 -15 4 0 10 61 29 73 23 4 -2 5 -9 2
-14z m6012 -31 c-3 -7 -5 -2 -5 12 0 14 2 19 5 13 2 -7 2 -19 0 -25z m-282
-53 c-9 -31 -19 -54 -22 -52 -2 3 3 30 13 61 23 73 30 65 9 -9z m-6435 45 c0
-5 -4 -10 -10 -10 -5 0 -10 5 -10 10 0 6 5 10 10 10 6 0 10 -4 10 -10z m6721
-102 c-3 -21 -6 -26 -9 -15 -3 17 3 47 11 47 2 0 1 -15 -2 -32z m-5198 -3 c-7
-19 -33 -20 -33 -1 0 15 20 26 32 19 4 -2 5 -10 1 -18z m4873 -56 c-18 -41
-21 -26 -4 22 6 18 13 29 15 23 2 -6 -3 -26 -11 -45z m309 -9 c-3 -5 -12 -10
-18 -10 -7 0 -6 4 3 10 19 12 23 12 15 0z m-334 -53 c-10 -9 -11 -8 -5 6 3 10
9 15 12 12 3 -3 0 -11 -7 -18z m321 -7 c-2 -17 -7 -29 -10 -26 -3 3 -11 1 -19
-5 -9 -9 -13 -8 -13 0 0 6 7 14 15 17 8 4 15 15 15 25 0 10 4 19 8 19 5 0 7
-14 4 -30z m-12832 -13 c25 -2 52 -7 59 -11 13 -8 96 -18 159 -19 20 0 32 -6
32 -14 0 -7 9 -13 21 -13 13 0 18 4 13 12 -5 8 2 9 27 4 82 -18 111 -19 120
-5 6 10 9 10 9 2 0 -7 6 -13 14 -13 8 0 16 -6 19 -12 3 -10 7 -10 19 -1 18 15
32 5 17 -13 -6 -8 -6 -14 0 -18 5 -4 12 3 16 14 5 15 15 20 41 20 22 0 34 -5
34 -14 0 -11 5 -12 25 -3 15 7 23 18 20 26 -4 11 -3 11 10 1 11 -9 22 -9 44
-2 32 11 71 6 71 -10 0 -5 -9 -4 -21 2 -17 9 -23 8 -34 -7 -7 -10 -11 -20 -9
-23 3 -2 9 2 15 10 8 13 12 12 24 -4 8 -11 15 -14 15 -7 0 7 4 10 9 6 5 -3 12
5 14 17 3 17 5 15 6 -9 0 -17 6 -35 12 -39 8 -5 10 1 7 20 -3 14 -1 29 3 32 5
3 9 1 9 -4 0 -6 9 -8 20 -5 22 6 25 -4 10 -27 -9 -13 -11 -13 -20 0 -8 12 -10
11 -10 -6 0 -28 -9 -35 -31 -23 -13 6 -19 6 -19 -1 0 -5 -5 -10 -11 -10 -5 0
-7 5 -4 10 7 12 -2 12 -30 0 -17 -7 -17 -9 -2 -9 9 -1 17 -5 17 -11 0 -6 -9
-6 -26 0 -33 13 -69 13 -39 0 16 -7 17 -9 3 -9 -9 -1 -19 -7 -21 -13 -3 -8 -6
-6 -6 5 -1 16 -31 26 -31 10 0 -5 -15 -9 -32 -9 -67 -3 -98 -9 -98 -20 0 -6
-12 -11 -27 -11 -52 -1 -103 -10 -117 -22 -8 -7 -20 -10 -25 -7 -5 4 -12 2
-15 -3 -12 -18 -205 -39 -229 -24 -6 4 -31 7 -56 8 -26 1 -46 3 -46 4 0 2 -9
4 -20 6 -11 2 -21 9 -24 16 -2 8 -6 7 -12 -2 -7 -11 -9 -10 -9 4 0 9 -5 17
-11 17 -5 0 -7 -6 -3 -12 4 -7 -14 9 -39 35 -26 27 -47 53 -47 58 0 6 -5 7
-12 3 -8 -5 -9 -2 -5 9 3 9 2 19 -3 22 -15 9 -12 37 3 29 6 -4 4 2 -5 12 -15
17 -16 23 -5 36 21 27 25 27 217 15z m12695 -37 c-4 -12 -9 -19 -12 -17 -3 3
-2 15 2 27 4 12 9 19 12 17 3 -3 2 -15 -2 -27z m5 -142 c0 -4 0 -11 0 -15 0
-5 -9 -9 -20 -9 -18 -1 -27 15 -15 28 8 8 35 5 35 -4z m-61 -24 c-15 -18 -22
-13 -13 10 3 9 10 13 16 10 5 -3 4 -12 -3 -20z m-22 -46 c-3 -8 -6 -5 -6 6 -1
11 2 17 5 13 3 -3 4 -12 1 -19z m39 13 c-4 -5 -1 -11 6 -13 9 -3 6 -24 -12
-82 -17 -56 -26 -73 -31 -59 -8 22 0 104 12 118 5 5 9 17 9 27 0 10 5 18 11
18 5 0 8 -4 5 -9z m-7039 -103 c-3 -7 -5 -2 -5 12 0 14 2 19 5 13 2 -7 2 -19
0 -25z m6955 -91 c-11 -17 -36 -59 -56 -91 -37 -61 -51 -108 -20 -70 15 19 15
19 5 -1 -5 -11 -19 -29 -30 -39 l-21 -19 6 34 c10 58 61 156 114 221 23 28 24
2 2 -35z m-580 6 c-6 -3 -10 -8 -7 -13 3 -4 -2 -13 -10 -20 -8 -7 -15 -19 -15
-27 0 -8 -11 -29 -25 -47 -14 -18 -25 -38 -25 -44 0 -7 -4 -12 -10 -12 -5 0
-10 -3 -9 -7 3 -23 -16 -53 -33 -53 -10 0 -16 -4 -13 -10 3 -5 -2 -10 -12 -11
-10 0 -13 -3 -5 -6 6 -2 12 -9 12 -14 0 -6 -5 -7 -11 -4 -6 4 -13 -2 -16 -13
-6 -26 -33 -38 -32 -14 0 9 9 31 20 47 10 17 22 37 25 45 19 43 138 209 152
213 20 4 32 -4 14 -10z m-6355 -95 c-3 -8 -6 -5 -6 6 -1 11 2 17 5 13 3 -3 4
-12 1 -19z m6566 -29 c39 -72 5 -364 -75 -639 -145 -505 -381 -984 -521 -1059
-100 -54 -145 113 -102 379 33 199 124 516 208 722 140 341 291 584 391 628
49 23 75 14 99 -31z m258 0 c-13 -20 -18 -42 -15 -56 4 -15 2 -23 -6 -23 -7 0
-10 7 -6 16 5 14 4 15 -9 4 -8 -7 -15 -10 -15 -7 0 15 61 110 67 103 2 -2 -5
-19 -16 -37z m-38 16 c-3 -9 -8 -14 -10 -11 -3 3 -2 9 2 15 9 16 15 13 8 -4z
m168 -9 c14 8 10 -20 -6 -42 -11 -14 -14 -15 -15 -4 0 9 -5 5 -13 -9 -15 -30
-40 -42 -30 -14 14 38 47 86 51 75 2 -7 8 -10 13 -6z m-6953 -120 c8 -15 11
-30 8 -33 -3 -3 -10 5 -14 18 -5 13 -13 23 -18 21 -5 -2 -11 4 -12 14 -6 26
21 11 36 -20z m6757 -4 c-3 -17 -13 -33 -21 -36 -19 -7 -18 6 3 43 21 36 27
33 18 -7z m101 1 c-10 -10 -19 5 -10 18 6 11 8 11 12 0 2 -7 1 -15 -2 -18z
m-32 -18 c-6 -15 -44 -41 -44 -30 0 8 34 43 42 44 4 1 5 -6 2 -14z m-6797 -27
c-3 -8 -6 -5 -6 6 -1 11 2 17 5 13 3 -3 4 -12 1 -19z m6723 -16 c0 -1 -9 -12
-20 -24 l-20 -22 0 25 c0 18 5 25 20 25 11 0 20 -2 20 -4z m-1147 -47 c41 -8
55 -21 38 -38 -7 -7 -5 -14 7 -23 29 -22 -8 -48 -76 -54 -67 -6 -109 10 -125
50 -4 12 -6 11 -6 -2 -1 -21 -17 -24 -24 -5 -4 9 -8 9 -15 -2 -11 -15 -55 -24
-46 -9 3 4 0 8 -7 8 -7 0 -9 3 -6 7 4 3 0 17 -8 30 -14 21 -14 23 2 23 10 1
56 7 103 15 47 7 94 12 105 10 11 -2 37 -7 58 -10z m1029 -17 c-7 -7 -12 -8
-12 -2 0 14 12 26 19 19 2 -3 -1 -11 -7 -17z m-6662 -109 c0 -16 -4 -29 -10
-29 -5 0 -10 16 -10 36 0 21 4 33 10 29 6 -3 10 -19 10 -36z m17 -61 c-3 -8
-6 -5 -6 6 -1 11 2 17 5 13 3 -3 4 -12 1 -19z m6006 -66 c10 -10 15 -21 13
-23 -2 -2 -6 -25 -9 -52 -3 -26 -13 -59 -21 -75 -8 -15 -19 -36 -24 -47 -18
-37 -60 -75 -76 -69 -9 3 -16 12 -16 20 0 8 -4 14 -10 14 -17 0 -11 28 14 57
13 16 26 46 28 69 6 51 46 124 68 124 9 0 24 -8 33 -18z m772 -72 c-3 -5 -11
-10 -16 -10 -6 0 -7 5 -4 10 3 6 11 10 16 10 6 0 7 -4 4 -10z m-5072 -57 c-7
-2 -19 -2 -25 0 -7 3 -2 5 12 5 14 0 19 -2 13 -5z m132 -113 c3 -5 1 -10 -4
-10 -6 0 -11 5 -11 10 0 6 2 10 4 10 3 0 8 -4 11 -10z m45 -25 c0 -2 -9 -3
-19 -2 -11 0 -18 5 -15 9 4 6 34 0 34 -7z m-101 -37 c11 -15 11 -18 -1 -18 -7
0 -14 10 -15 21 -1 12 -1 20 0 18 2 -2 9 -12 16 -21z m4876 -75 c-5 -15 -7
-34 -6 -40 1 -7 -3 -13 -9 -13 -13 0 -13 33 2 65 14 32 23 25 13 -12z m-4935
-3 c0 -5 -4 -10 -10 -10 -5 0 -10 5 -10 10 0 6 5 10 10 10 6 0 10 -4 10 -10z
m4897 -62 c-3 -8 -6 -5 -6 6 -1 11 2 17 5 13 3 -3 4 -12 1 -19z m-4321 -8 c13
0 24 -4 24 -8 0 -9 -130 4 -139 14 -3 4 16 4 43 0 27 -3 59 -6 72 -6z m234
-50 c123 -36 179 -58 325 -133 116 -59 125 -65 265 -206 165 -165 173 -175
242 -279 46 -71 108 -192 108 -212 0 -4 13 -37 28 -72 40 -88 56 -161 54 -243
-5 -172 -41 -263 -146 -370 -39 -39 -83 -79 -97 -87 -48 -30 -133 -49 -242
-55 -60 -3 -103 -9 -97 -13 42 -26 -149 -38 -245 -16 -38 9 -77 17 -85 18 -8
0 -19 4 -25 8 -19 14 -111 39 -168 46 -47 5 -69 15 -118 51 -33 24 -57 48 -54
52 3 5 29 0 58 -11 87 -34 220 -75 262 -81 34 -6 29 -3 -25 18 -92 36 -199 87
-223 108 -24 21 -8 22 38 3 19 -8 35 -11 35 -5 0 5 -5 9 -10 9 -19 0 -118 79
-147 116 -15 20 -62 72 -104 116 -42 44 -86 98 -98 120 -45 85 -57 103 -84
133 -98 106 -113 304 -35 462 40 81 133 180 199 210 161 75 410 68 611 -17 77
-32 80 -27 8 13 -25 14 -44 30 -43 35 1 5 -3 9 -10 10 -7 0 -23 4 -36 8 -19 6
-23 4 -17 -7 4 -8 -1 -4 -11 7 -22 26 -66 40 -151 49 -34 3 -76 12 -92 19 -28
11 -24 12 42 10 72 -1 206 -38 231 -63 14 -14 40 -14 31 0 -4 8 0 8 15 0 11
-7 21 -15 21 -19 0 -13 40 -12 41 1 0 7 5 3 10 -8 8 -17 9 -17 4 5 -2 14 -5
31 -5 38 0 6 -7 12 -15 12 -8 0 -15 5 -15 11 0 5 -5 7 -10 4 -6 -4 -8 -12 -4
-18 3 -7 -6 1 -20 16 -15 16 -24 33 -21 38 7 10 -28 12 -62 3 -27 -8 -31 -27
-5 -22 11 2 20 -1 21 -7 1 -5 -12 -11 -28 -13 -25 -2 -28 0 -28 24 0 14 -7 30
-14 35 -11 7 -10 9 4 9 11 0 15 4 11 12 -4 6 -3 8 4 4 5 -3 13 0 16 6 4 7 4 3
2 -10 -3 -18 -1 -22 11 -18 8 3 19 6 24 6 5 0 9 9 9 20 0 13 7 20 20 20 13 0
20 -7 20 -19 0 -12 11 -23 31 -30 42 -15 48 -13 25 4 -11 8 -15 15 -10 15 15
0 121 -69 107 -70 -7 0 -13 -4 -13 -9 0 -4 11 -6 25 -3 20 3 25 0 25 -15 0
-11 7 -28 15 -39 14 -19 14 -18 15 4 0 12 -4 22 -10 22 -5 0 -10 5 -10 11 0 6
14 1 30 -11 41 -29 39 -36 -14 -90 -24 -24 -18 -25 20 -5 16 8 23 15 15 15 -8
0 -12 2 -10 5 9 8 79 -29 79 -42 0 -17 -5 -16 -26 5 -17 16 -18 16 -11 0 6
-18 -3 -24 -17 -11 -10 10 -37 13 -31 2 3 -4 22 -13 43 -19 44 -12 52 -12 51
-2 -5 29 2 34 21 14 12 -12 26 -22 33 -22 7 0 6 -4 -3 -10 -13 -8 -13 -10 -1
-10 8 0 26 -10 39 -22 14 -13 22 -17 18 -10 -5 7 -1 12 9 12 11 0 15 -5 11
-16 -3 -8 -2 -12 4 -9 6 3 10 -1 10 -9 0 -9 6 -16 14 -16 25 0 192 -242 251
-365 40 -81 43 -82 15 -3 -50 142 -198 360 -318 467 -214 191 -395 295 -652
372 -120 36 -150 47 -110 43 30 -4 98 -19 150 -34z m-400 -40 c0 -5 -4 -10
-10 -10 -5 0 -10 5 -10 10 0 6 5 10 10 10 6 0 10 -4 10 -10z m31 -13 c-10 -9
-11 -8 -5 6 3 10 9 15 12 12 3 -3 0 -11 -7 -18z m259 13 c0 -5 -7 -10 -16 -10
-8 0 -12 5 -9 10 3 6 10 10 16 10 5 0 9 -4 9 -10z m4460 -6 c0 -8 -4 -12 -10
-9 -5 3 -10 10 -10 16 0 5 5 9 10 9 6 0 10 -7 10 -16z m-4420 2 c0 -3 -4 -8
-10 -11 -5 -3 -10 -1 -10 4 0 6 5 11 10 11 6 0 10 -2 10 -4z m59 -10 c8 -10 9
-16 1 -21 -5 -3 -10 -1 -10 4 0 6 -7 11 -16 11 -8 0 -12 5 -9 10 9 14 20 12
34 -4z m4341 -14 c0 -5 -9 -17 -20 -27 -19 -17 -29 -52 -11 -41 4 3 6 -6 3
-20 -3 -15 2 -32 13 -44 22 -24 15 -69 -19 -121 -14 -20 -32 -67 -41 -105 -10
-38 -37 -110 -61 -161 -24 -50 -44 -99 -44 -107 0 -9 -4 -16 -10 -16 -5 0 -23
-21 -41 -47 -45 -67 -100 -123 -121 -123 -24 0 -25 56 -1 82 12 13 14 23 7 39
-15 34 22 100 71 126 22 11 40 26 40 32 0 7 6 15 13 20 7 4 14 18 15 29 1 12
5 22 10 22 5 0 7 9 4 20 -3 11 0 26 6 33 20 20 19 46 -2 68 l-20 21 -20 -33
c-12 -19 -21 -37 -21 -41 0 -5 -5 -8 -12 -8 -7 0 -22 -12 -35 -27 l-22 -28 3
40 c4 45 37 133 49 133 5 1 22 17 39 36 17 20 34 34 38 31 5 -3 6 4 3 15 -4
14 -1 20 7 18 7 -2 27 25 44 59 17 34 39 65 48 68 10 3 30 19 45 36 28 29 43
36 43 21z m-4222 -11 c7 -1 11 -5 8 -9 -7 -12 -49 -8 -53 5 -2 6 4 10 14 8 10
-2 24 -4 31 -4z m-272 -31 c8 0 14 -5 14 -10 0 -13 -70 -2 -85 13 -7 6 1 8 24
3 18 -3 40 -6 47 -6z m141 4 c-3 -3 -12 -4 -19 -1 -8 3 -5 6 6 6 11 1 17 -2
13 -5z m23 -34 c8 -5 11 -12 7 -16 -4 -4 -15 0 -24 9 -18 18 -8 23 17 7z
m-299 -26 c-58 -7 -124 -20 -148 -28 -46 -16 -56 -14 -22 4 35 20 141 38 209
38 62 -1 60 -1 -39 -14z m189 6 c12 -8 11 -10 -5 -9 -11 1 -31 5 -45 9 -24 8
-24 8 5 9 17 0 37 -4 45 -9z m150 -20 c0 -5 -4 -10 -9 -10 -6 0 -13 5 -16 10
-3 6 1 10 9 10 9 0 16 -4 16 -10z m475 -140 c18 -20 18 -21 -1 -13 -10 4 -25
13 -32 20 -11 11 -11 13 1 13 8 0 22 -9 32 -20z m-1395 -130 c-20 -154 12
-294 103 -447 50 -84 54 -100 20 -89 -60 21 -179 271 -189 399 -9 107 21 242
54 249 25 5 26 -6 12 -112z m1456 73 c-8 -8 -36 10 -36 25 0 13 3 12 20 -3 11
-10 18 -20 16 -22z m3272 -6 c6 -7 15 -41 21 -76 35 -214 -132 -817 -341
-1236 -105 -209 -221 -365 -284 -381 -58 -15 -94 54 -94 181 0 106 70 431 132
610 39 114 70 200 78 220 5 11 25 61 45 110 92 226 206 424 300 522 52 54 66
63 97 63 19 0 40 -6 46 -13z m-4541 -79 c-3 -7 -5 -2 -5 12 0 14 2 19 5 13 2
-7 2 -19 0 -25z m4800 -70 c-3 -8 -6 -5 -6 6 -1 11 2 17 5 13 3 -3 4 -12 1
-19z m210 -47 c4 -15 2 -26 -5 -29 -7 -2 -9 -9 -6 -14 4 -6 2 -8 -4 -4 -6 3
-13 2 -17 -3 -8 -14 -45 -9 -45 6 0 17 -17 17 -23 1 -2 -7 -7 -10 -11 -6 -12
10 12 46 42 62 38 20 62 16 69 -13z m-1227 -71 c0 -5 -5 -10 -11 -10 -5 0 -7
5 -4 10 3 6 8 10 11 10 2 0 4 -4 4 -10z m-10 -40 c0 -5 -5 -10 -11 -10 -5 0
-7 5 -4 10 3 6 8 10 11 10 2 0 4 -4 4 -10z m1140 -91 c-7 -11 -14 -18 -17 -15
-3 3 0 12 7 21 18 21 23 19 10 -6z m-2889 -53 c5 3 9 1 9 -4 0 -12 -26 -23
-33 -15 -3 3 -3 12 1 21 4 10 7 12 10 4 2 -7 8 -10 13 -6z m-8 -43 c-7 -2 -21
-2 -30 0 -10 3 -4 5 12 5 17 0 24 -2 18 -5z m-3081 -38 c11 -4 30 -8 41 -10
12 -1 54 -12 94 -24 351 -105 713 -442 792 -736 13 -48 15 -91 11 -213 -3 -83
-1 -152 3 -152 5 0 7 -8 5 -17 -2 -13 10 -25 42 -40 25 -12 51 -23 59 -23 8 0
11 -7 8 -20 -3 -11 -1 -22 4 -25 19 -12 -3 -135 -24 -135 -7 0 -18 4 -26 9 -9
6 -21 3 -34 -10 -23 -21 -37 -24 -37 -9 0 6 -10 10 -22 10 -17 0 -19 3 -10 9
10 6 7 10 -13 15 -39 10 -68 -2 -62 -25 4 -14 0 -19 -13 -19 -13 0 -17 5 -13
19 4 15 0 19 -21 17 -19 -1 -27 -8 -32 -28 -4 -21 -12 -28 -30 -28 -13 0 -24
-4 -24 -10 0 -5 5 -10 11 -10 8 0 8 -5 -1 -15 -7 -8 -27 -15 -44 -15 -38 0
-50 -9 -53 -37 -2 -17 4 -24 23 -29 49 -12 11 -19 -112 -19 -96 0 -124 2 -124
13 0 9 -5 10 -19 2 -20 -10 -37 -6 -106 25 -55 25 -125 45 -157 45 -41 0 -148
30 -148 41 0 5 -5 9 -11 9 -6 0 -25 11 -42 24 -18 13 -55 35 -84 49 -85 40
-118 64 -199 143 -81 78 -112 131 -120 199 -11 108 -21 135 -86 243 -21 34
-38 66 -38 71 0 5 -6 11 -13 14 -25 10 -38 85 -36 217 1 141 10 179 60 259 38
64 90 108 171 148 64 32 179 69 233 75 43 5 173 0 197 -7z m2936 -183 c2 -7
-2 -10 -12 -6 -9 3 -16 11 -16 16 0 13 23 5 28 -10z m607 -72 c-3 -5 -18 -10
-33 -9 l-27 1 25 8 c35 11 42 11 35 0z m-85 -18 c0 -12 -62 -30 -80 -24 -8 3
5 11 30 17 25 7 46 13 48 14 1 0 2 -3 2 -7z m-221 -28 c10 -9 -35 -3 -49 6
-11 8 -7 9 15 4 17 -4 32 -8 34 -10z m298 -10 c-3 -3 -12 -4 -19 -1 -8 3 -5 6
6 6 11 1 17 -2 13 -5z m1304 -303 c-11 -7 -26 -70 -22 -95 2 -11 -2 -16 -8
-12 -6 4 -11 2 -11 -3 0 -6 4 -11 8 -11 5 0 8 -20 8 -45 -1 -31 3 -45 12 -45
7 0 11 -3 8 -8 -5 -8 -17 -81 -21 -122 -6 -78 -29 -199 -37 -194 -4 3 -6 9 -3
14 3 4 0 10 -6 12 -9 3 -9 9 0 25 6 13 7 24 2 28 -5 3 -9 22 -9 43 1 20 -2 45
-7 55 -4 10 -3 17 5 17 6 0 9 4 6 9 -9 14 5 101 15 95 5 -3 6 2 3 11 -4 10
-14 14 -28 10 l-21 -5 21 11 c21 11 23 16 40 134 0 6 4 17 7 25 3 8 8 33 12
55 6 37 8 38 21 20 8 -10 10 -21 5 -24z m-1414 -157 c-3 -3 -12 -4 -19 -1 -8
3 -5 6 6 6 11 1 17 -2 13 -5z m2013 -36 c78 -129 -70 -743 -291 -1206 -103
-214 -214 -385 -282 -429 -47 -32 -90 -30 -113 5 -26 38 -24 191 5 340 24 125
99 395 135 487 13 33 43 110 66 170 64 166 143 328 217 445 84 132 91 142 143
185 55 46 93 47 120 3z m-1878 0 c-5 -21 -12 -22 -46 -7 -33 15 -26 26 17 25
27 -1 33 -4 29 -18z m-2148 -40 c14 -8 16 -12 6 -18 -10 -6 -8 -11 9 -21 11
-8 21 -21 21 -31 0 -9 4 -18 10 -20 17 -5 20 -120 4 -143 -12 -16 -17 -17 -32
-7 -9 7 -28 17 -42 22 -28 11 -70 67 -70 93 0 9 -4 17 -10 17 -16 0 -12 83 5
107 13 18 22 21 48 16 18 -3 40 -10 51 -15z m-2179 -29 c10 -15 2 -19 -23 -12
-13 3 -22 13 -22 25 0 15 3 17 19 8 11 -5 23 -15 26 -21z m4305 11 c0 -5 -2
-10 -4 -10 -3 0 -8 5 -11 10 -3 6 -1 10 4 10 6 0 11 -4 11 -10z m19 -18 c39
-1 40 -2 32 -24 -6 -16 -10 -16 -54 5 -26 13 -44 26 -41 30 4 4 12 3 18 -2 6
-4 26 -9 45 -9z m-4390 -38 c-6 -7 -3 -16 7 -25 14 -12 14 -14 0 -25 -15 -10
-14 -12 5 -17 11 -3 18 -10 14 -16 -3 -6 -1 -11 5 -11 6 0 9 -4 6 -9 -3 -5 6
-12 19 -15 14 -4 23 -11 20 -16 -3 -6 2 -10 11 -10 10 0 15 -3 11 -6 -3 -3 -1
-18 4 -32 12 -31 -4 -44 -38 -31 -12 5 -23 6 -23 4 0 -8 -37 31 -48 51 -7 13
-7 25 0 37 7 14 7 17 -1 13 -5 -4 -16 6 -23 21 -15 30 -13 83 3 83 5 0 9 9 9
20 0 17 2 19 14 8 9 -8 11 -17 5 -24z m56 16 c3 -5 -1 -10 -9 -10 -8 0 -18 5
-21 10 -3 6 1 10 9 10 8 0 18 -4 21 -10z m3203 -17 c5 -18 -10 -16 -34 2 -18
15 -18 15 5 13 14 -2 26 -9 29 -15z m-1164 -248 c25 -25 78 -28 130 -5 52 22
91 26 101 10 3 -5 15 -10 26 -10 28 0 129 -101 129 -129 0 -54 -65 -139 -98
-126 -7 3 -23 0 -34 -6 -15 -8 -42 -8 -101 1 -118 17 -152 42 -196 146 -24 56
-26 70 -17 99 12 38 34 45 60 20z m2201 -72 c11 -5 33 -13 48 -17 15 -4 25
-11 22 -16 -3 -6 3 -10 15 -10 14 0 19 -4 14 -12 -5 -8 0 -7 11 2 10 8 16 10
12 4 -7 -12 25 -24 77 -29 16 -2 36 -12 45 -23 9 -12 36 -29 61 -38 93 -36
276 -169 374 -273 238 -250 313 -520 207 -748 -128 -272 -489 -337 -921 -164
-30 13 -114 56 -186 97 -72 41 -141 74 -153 74 -58 0 -122 61 -150 143 -11 32
-30 70 -41 85 -12 15 -34 46 -50 69 -24 34 -36 42 -72 48 -24 4 -54 15 -68 24
-14 9 -51 30 -83 46 -33 17 -68 44 -80 60 -11 17 -30 39 -42 50 -32 29 -65 99
-65 137 0 71 5 76 107 103 25 7 73 -38 73 -68 0 -22 43 -97 68 -120 17 -15 19
-15 33 1 7 10 14 24 15 33 5 72 30 195 50 243 13 33 24 65 24 73 0 7 8 22 18
32 9 11 26 31 37 46 11 14 46 42 78 62 43 26 55 38 45 44 -7 5 -11 9 -8 10 3
0 19 3 35 5 17 3 46 10 65 16 37 13 108 17 125 8 6 -3 35 -5 65 -6 30 0 77 -4
104 -8 46 -7 48 -6 43 13 -6 22 11 24 48 4z m1305 -13 c0 -5 -2 -10 -4 -10 -3
0 -8 5 -11 10 -3 6 -1 10 4 10 6 0 11 -4 11 -10z m-10 -74 c0 -2 -7 -9 -15
-16 -12 -10 -15 -10 -15 4 0 9 7 16 15 16 8 0 15 -2 15 -4z m-2784 -238 c46
-22 48 -29 47 -121 0 -16 6 -18 33 -12 31 5 51 -1 121 -38 47 -25 49 -142 3
-167 -28 -15 -96 -12 -110 5 -7 8 -18 15 -24 15 -15 1 -40 37 -57 83 -11 32
-11 41 0 60 11 16 5 14 -21 -9 -23 -20 -64 -40 -110 -54 -40 -12 -87 -28 -105
-36 -17 -8 -43 -14 -58 -14 -28 0 -85 26 -85 39 0 4 -9 18 -20 31 -12 14 -20
37 -20 61 0 32 6 42 43 71 126 100 268 134 363 86z m2771 -105 c-3 -10 -5 -4
-5 12 0 17 2 24 5 18 2 -7 2 -21 0 -30z m-4636 -72 c11 -13 19 -18 19 -11 0 7
8 9 23 5 33 -9 101 -38 107 -46 3 -3 23 -15 45 -27 22 -11 54 -32 70 -47 17
-14 41 -32 55 -40 14 -7 38 -27 53 -44 15 -18 32 -29 37 -26 6 4 7 -2 3 -12
-3 -10 -2 -15 2 -11 5 5 13 -2 19 -15 7 -12 18 -22 25 -22 19 0 23 -35 5 -42
-8 -3 -24 -2 -37 1 -22 6 -155 108 -169 130 -5 6 -8 7 -8 1 0 -6 -3 -6 -8 1
-4 5 -25 21 -47 34 -22 13 -42 26 -45 29 -3 4 -18 13 -35 21 -16 8 -45 25 -62
38 -18 14 -33 20 -33 16 0 -5 -9 2 -19 15 -10 14 -17 32 -14 40 3 9 -4 5 -15
-8 -13 -16 -21 -20 -26 -12 -4 6 -12 9 -17 6 -5 -4 -9 1 -9 9 0 8 5 18 10 21
6 4 8 10 6 14 -12 19 49 3 65 -18z m4621 -23 c-8 -8 -9 -4 -5 13 4 13 8 18 11
10 2 -7 -1 -18 -6 -23z m-28 -45 c-2 -38 -6 -95 -9 -128 -2 -33 -8 -91 -14
-130 -6 -38 -16 -118 -21 -178 -5 -59 -13 -113 -17 -120 -4 -6 -8 -19 -8 -27
-1 -8 -7 -42 -14 -74 l-13 -60 -15 35 c-13 31 -20 219 -9 238 3 3 7 27 11 51
12 88 34 199 56 277 11 43 21 84 22 91 0 6 5 12 10 12 5 0 6 12 3 26 -6 21 6
54 20 54 1 0 1 -30 -2 -67z m-117 -780 c-15 -16 -17 -16 -17 -1 0 9 6 18 13
21 20 7 22 -2 4 -20z m-1367 -303 c140 -16 361 -103 457 -179 40 -32 44 -61 8
-61 -26 0 -32 2 -100 37 -39 20 -102 39 -117 35 -5 -1 -8 3 -8 9 0 6 -6 9 -12
7 -7 -3 -35 4 -63 14 -93 34 -238 59 -370 62 -105 2 -129 5 -136 19 -12 21 7
30 86 45 33 7 69 13 80 16 37 7 89 6 175 -4z m1304 -81 c-2 -5 -21 -11 -42
-15 -20 -4 -45 -11 -55 -16 -19 -10 -120 -38 -124 -34 -6 6 19 24 67 49 42 20
68 27 107 25 29 -1 50 -5 47 -9z m-1687 -1076 c-9 -9 -19 -14 -23 -11 -10 10
6 28 24 28 15 0 15 -1 -1 -17z m1013 -147 c0 -3 -4 -8 -10 -11 -5 -3 -10 -1
-10 4 0 6 5 11 10 11 6 0 10 -2 10 -4z m-2420 -110 c0 -3 -4 -8 -10 -11 -5 -3
-10 -1 -10 4 0 6 5 11 10 11 6 0 10 -2 10 -4z m37 -37 c1 -19 1 -20 -4 -4 -3
11 -10 24 -17 28 -7 6 -6 7 4 4 8 -2 16 -14 17 -28z m983 -153 c0 -8 -4 -17
-9 -20 -10 -7 -23 19 -14 28 11 11 23 6 23 -8z"/>
<path d="M21260 10629 c0 -5 5 -7 10 -4 6 3 10 8 10 11 0 2 -4 4 -10 4 -5 0
-10 -5 -10 -11z"/>
<path d="M17790 10600 c0 -5 5 -10 11 -10 5 0 7 5 4 10 -3 6 -8 10 -11 10 -2
0 -4 -4 -4 -10z"/>
<path d="M21765 10570 c-3 -5 -1 -10 4 -10 6 0 11 5 11 10 0 6 -2 10 -4 10 -3
0 -8 -4 -11 -10z"/>
<path d="M20691 7574 c0 -11 3 -14 6 -6 3 7 2 16 -1 19 -3 4 -6 -2 -5 -13z"/>
<path d="M20682 7515 c0 -16 2 -22 5 -12 2 9 2 23 0 30 -3 6 -5 -1 -5 -18z"/>
<path d="M20192 5555 c0 -16 2 -22 5 -12 2 9 2 23 0 30 -3 6 -5 -1 -5 -18z"/>
<path d="M15065 10550 c-8 -13 -1 -24 14 -19 6 3 7 10 2 18 -6 10 -10 10 -16
1z"/>
<path d="M15077 10490 c3 -11 9 -20 13 -20 5 0 6 9 3 20 -3 11 -9 20 -13 20
-5 0 -6 -9 -3 -20z"/>
<path d="M14995 10430 c-3 -5 1 -10 9 -10 9 0 16 5 16 10 0 6 -4 10 -9 10 -6
0 -13 -4 -16 -10z"/>
<path d="M15070 10429 c0 -5 5 -7 10 -4 6 3 10 8 10 11 0 2 -4 4 -10 4 -5 0
-10 -5 -10 -11z"/>
<path d="M15048 10383 c7 -3 16 -2 19 1 4 3 -2 6 -13 5 -11 0 -14 -3 -6 -6z"/>
<path d="M17486 10521 c-4 -7 -5 -15 -2 -18 9 -9 19 4 14 18 -4 11 -6 11 -12
0z"/>
<path d="M19350 10360 c-13 -8 -12 -10 3 -10 9 0 17 5 17 10 0 12 -1 12 -20 0z"/>
<path d="M19380 10350 c0 -4 7 -13 15 -20 12 -10 15 -9 15 7 0 11 -7 20 -15
20 -8 0 -15 -4 -15 -7z"/>
<path d="M19685 10310 c3 -5 13 -10 21 -10 8 0 14 5 14 10 0 6 -9 10 -21 10
-11 0 -17 -4 -14 -10z"/>
<path d="M18965 10150 c3 -5 8 -10 11 -10 2 0 4 5 4 10 0 6 -5 10 -11 10 -5 0
-7 -4 -4 -10z"/>
<path d="M19113 10094 c-15 -16 -16 -24 -4 -24 8 0 24 30 19 35 -2 2 -9 -3
-15 -11z"/>
<path d="M19156 10033 c-6 -14 -5 -15 5 -6 7 7 10 15 7 18 -3 3 -9 -2 -12 -12z"/>
<path d="M19160 9956 c0 -4 89 -56 96 -56 2 0 4 4 4 8 0 5 -18 18 -41 30 -39
21 -59 27 -59 18z"/>
<path d="M19395 9930 c3 -5 8 -10 11 -10 2 0 4 5 4 10 0 6 -5 10 -11 10 -5 0
-7 -4 -4 -10z"/>
<path d="M19096 9901 c-11 -4 -15 -10 -9 -14 5 -3 19 0 29 8 20 15 11 18 -20
6z"/>
<path d="M19220 9880 c0 -5 5 -10 10 -10 6 0 10 5 10 10 0 6 -4 10 -10 10 -5
0 -10 -4 -10 -10z"/>
<path d="M19232 9848 c3 -7 13 -15 24 -17 16 -3 17 -1 5 13 -16 19 -34 21 -29
4z"/>
<path d="M19380 9815 c0 -8 7 -15 16 -15 14 0 14 3 4 15 -7 8 -14 15 -16 15
-2 0 -4 -7 -4 -15z"/>
<path d="M18686 10183 c-11 -11 -6 -23 9 -23 8 0 15 4 15 9 0 13 -16 22 -24
14z"/>
<path d="M18790 10186 c0 -2 7 -9 15 -16 9 -7 15 -8 15 -2 0 5 -7 12 -15 16
-8 3 -15 4 -15 2z"/>
<path d="M18702 10139 c2 -6 8 -10 13 -10 5 0 11 4 13 10 2 6 -4 11 -13 11 -9
0 -15 -5 -13 -11z"/>
<path d="M18752 10113 c5 -7 14 -10 19 -7 16 10 9 23 -10 21 -15 -1 -17 -4 -9
-14z"/>
<path d="M7600 9330 c0 -5 5 -10 11 -10 5 0 7 5 4 10 -3 6 -8 10 -11 10 -2 0
-4 -4 -4 -10z"/>
<path d="M17160 9920 c0 -11 5 -20 10 -20 6 0 10 9 10 20 0 11 -4 20 -10 20
-5 0 -10 -9 -10 -20z"/>
<path d="M17068 9822 c9 -10 23 -27 29 -38 10 -16 11 -14 2 11 -10 28 -25 45
-41 45 -5 0 0 -8 10 -18z"/>
<path d="M17380 9770 c0 -6 7 -10 15 -10 8 0 15 2 15 4 0 2 -7 6 -15 10 -8 3
-15 1 -15 -4z"/>
<path d="M17140 9494 c0 -14 4 -23 9 -20 5 3 7 15 4 26 -7 28 -13 25 -13 -6z"/>
<path d="M16960 9430 c0 -5 7 -10 15 -10 8 0 15 5 15 10 0 6 -7 10 -15 10 -8
0 -15 -4 -15 -10z"/>
<path d="M16778 9313 c7 -3 16 -2 19 1 4 3 -2 6 -13 5 -11 0 -14 -3 -6 -6z"/>
<path d="M16790 9290 c0 -5 5 -10 11 -10 5 0 7 5 4 10 -3 6 -8 10 -11 10 -2 0
-4 -4 -4 -10z"/>
<path d="M17875 9460 c-3 -5 -1 -10 4 -10 6 0 11 5 11 10 0 6 -2 10 -4 10 -3
0 -8 -4 -11 -10z"/>
<path d="M18565 9401 c-3 -5 -1 -12 5 -16 5 -3 10 1 10 9 0 18 -6 21 -15 7z"/>
<path d="M15161 8814 c0 -11 3 -14 6 -6 3 7 2 16 -1 19 -3 4 -6 -2 -5 -13z"/>
<path d="M15008 8803 c7 -3 16 -2 19 1 4 3 -2 6 -13 5 -11 0 -14 -3 -6 -6z"/>
<path d="M15780 8194 c0 -3 7 -12 15 -20 13 -13 15 -13 15 -1 0 8 -7 17 -15
21 -8 3 -15 3 -15 0z"/>
<path d="M16690 7650 c0 -5 5 -10 10 -10 6 0 10 5 10 10 0 6 -4 10 -10 10 -5
0 -10 -4 -10 -10z"/>
<path d="M15610 7529 c0 -5 9 -9 20 -9 11 0 20 2 20 4 0 2 -9 6 -20 9 -11 3
-20 1 -20 -4z"/>
<path d="M15610 7481 c0 -5 6 -12 13 -15 9 -5 9 -7 -1 -12 -12 -6 -7 -24 7
-24 7 0 8 20 2 53 -2 10 -21 9 -21 -2z"/>
<path d="M15650 7450 c0 -5 5 -10 11 -10 5 0 7 5 4 10 -3 6 -8 10 -11 10 -2 0
-4 -4 -4 -10z"/>
<path d="M16255 7400 c3 -5 14 -10 23 -10 15 0 15 2 2 10 -20 13 -33 13 -25 0z"/>
<path d="M15908 7343 c7 -3 16 -2 19 1 4 3 -2 6 -13 5 -11 0 -14 -3 -6 -6z"/>
<path d="M17378 7053 c7 -3 16 -2 19 1 4 3 -2 6 -13 5 -11 0 -14 -3 -6 -6z"/>
<path d="M19271 6644 c0 -11 3 -14 6 -6 3 7 2 16 -1 19 -3 4 -6 -2 -5 -13z"/>
<path d="M19408 6473 c7 -3 16 -2 19 1 4 3 -2 6 -13 5 -11 0 -14 -3 -6 -6z"/>
<path d="M17500 6150 c0 -5 5 -10 11 -10 5 0 7 5 4 10 -3 6 -8 10 -11 10 -2 0
-4 -4 -4 -10z"/>
<path d="M8550 8551 c0 -5 5 -13 10 -16 6 -3 10 -2 10 4 0 5 -4 13 -10 16 -5
3 -10 2 -10 -4z"/>
<path d="M16575 6890 c-3 -5 -1 -10 4 -10 6 0 11 5 11 10 0 6 -2 10 -4 10 -3
0 -8 -4 -11 -10z"/>
<path d="M16570 6860 c0 -6 7 -10 15 -10 8 0 15 2 15 4 0 2 -7 6 -15 10 -8 3
-15 1 -15 -4z"/>
<path d="M16579 6786 c17 -36 33 -39 24 -6 -3 11 -13 25 -23 30 -16 9 -16 7
-1 -24z"/>
<path d="M16648 6793 c7 -3 16 -2 19 1 4 3 -2 6 -13 5 -11 0 -14 -3 -6 -6z"/>
<path d="M16670 6720 c0 -5 5 -10 11 -10 5 0 7 5 4 10 -3 6 -8 10 -11 10 -2 0
-4 -4 -4 -10z"/>
<path d="M16653 5443 c9 -2 23 -2 30 0 6 3 -1 5 -18 5 -16 0 -22 -2 -12 -5z"/>
<path d="M20461 6834 c0 -11 3 -14 6 -6 3 7 2 16 -1 19 -3 4 -6 -2 -5 -13z"/>
<path d="M20510 6749 c0 -5 5 -7 10 -4 6 3 10 8 10 11 0 2 -4 4 -10 4 -5 0
-10 -5 -10 -11z"/>
<path d="M20497 6723 c-4 -3 -7 -11 -7 -17 0 -6 5 -5 12 2 6 6 9 14 7 17 -3 3
-9 2 -12 -2z"/>
<path d="M15476 4804 c-11 -8 -16 -14 -10 -14 13 0 39 18 34 24 -3 2 -14 -2
-24 -10z"/>
<path d="M17950 4919 c0 -5 5 -7 10 -4 6 3 10 8 10 11 0 2 -4 4 -10 4 -5 0
-10 -5 -10 -11z"/>
<path d="M19161 3884 c0 -11 3 -14 6 -6 3 7 2 16 -1 19 -3 4 -6 -2 -5 -13z"/>
</g>
</svg>
